<?xml version="1.0" encoding="UTF-8" standalone="no"?>
<svg
   width="143.13545mm"
   height="102.27791mm"
   viewBox="0 0 143.13545 102.27791"
   version="1.1"
   id="svg1235"
   inkscape:version="1.1.2 (b8e25be833, 2022-02-05)"
   sodipodi:docname="logo_szines1.svg"
   xmlns:inkscape="http://www.inkscape.org/namespaces/inkscape"
   xmlns:sodipodi="http://sodipodi.sourceforge.net/DTD/sodipodi-0.dtd"
   xmlns="http://www.w3.org/2000/svg"
   xmlns:svg="http://www.w3.org/2000/svg"
   xmlns:rdf="http://www.w3.org/1999/02/22-rdf-syntax-ns#"
   xmlns:cc="http://creativecommons.org/ns#"
   xmlns:dc="http://purl.org/dc/elements/1.1/">
  <defs
     id="defs1229">
    <linearGradient
       id="linearGradient28558"
       inkscape:swatch="solid">
      <stop
         style="stop-color:#1fb01d;stop-opacity:1;"
         offset="0"
         id="stop28556" />
    </linearGradient>
    <linearGradient
       id="linearGradient6165"
       inkscape:swatch="solid">
      <stop
         style="stop-color:#00aa00;stop-opacity:1;"
         offset="0"
         id="stop6163" />
    </linearGradient>
  </defs>
  <sodipodi:namedview
     id="base"
     pagecolor="#ffffff"
     bordercolor="#666666"
     borderopacity="1.0"
     inkscape:pageopacity="0.0"
     inkscape:pageshadow="2"
     inkscape:zoom="2"
     inkscape:cx="251.49873"
     inkscape:cy="189.17952"
     inkscape:document-units="mm"
     inkscape:current-layer="layer1"
     inkscape:document-rotation="0"
     showgrid="false"
     lock-margins="true"
     fit-margin-top="10"
     fit-margin-left="10"
     fit-margin-right="10"
     fit-margin-bottom="10"
     inkscape:window-width="1920"
     inkscape:window-height="1030"
     inkscape:window-x="0"
     inkscape:window-y="0"
     inkscape:window-maximized="1"
     inkscape:pagecheckerboard="0" />
  <metadata
     id="metadata1232">
    <rdf:RDF>
      <cc:Work
         rdf:about="">
        <dc:format>image/svg+xml</dc:format>
        <dc:type
           rdf:resource="http://purl.org/dc/dcmitype/StillImage" />
      </cc:Work>
    </rdf:RDF>
  </metadata>
  <g
     inkscape:label="Layer 1"
     inkscape:groupmode="layer"
     id="layer1"
     transform="translate(3.2669378,1.5576444)">
    <rect
       style="opacity:0.264535;fill:#c4c8b7;fill-opacity:1;stroke:none;stroke-width:0;stroke-miterlimit:4;stroke-dasharray:none"
       id="rect7679"
       width="137.7901"
       height="91.902733"
       x="6.5804081"
       y="104.33324"
       ry="0" />
    <path
       id="path1144"
       style="color:#000000;font-style:normal;font-variant:normal;font-weight:normal;font-stretch:normal;font-size:medium;line-height:normal;font-family:sans-serif;font-variant-ligatures:normal;font-variant-position:normal;font-variant-caps:normal;font-variant-numeric:normal;font-variant-alternates:normal;font-variant-east-asian:normal;font-feature-settings:normal;font-variation-settings:normal;text-indent:0;text-align:start;text-decoration:none;text-decoration-line:none;text-decoration-style:solid;text-decoration-color:#000000;letter-spacing:normal;word-spacing:normal;text-transform:none;writing-mode:lr-tb;direction:ltr;text-orientation:mixed;dominant-baseline:auto;baseline-shift:baseline;text-anchor:start;white-space:normal;shape-padding:0;shape-margin:0;inline-size:0;clip-rule:nonzero;display:inline;overflow:visible;visibility:visible;isolation:auto;mix-blend-mode:normal;color-interpolation:sRGB;color-interpolation-filters:linearRGB;solid-color:#000000;solid-opacity:1;vector-effect:none;fill:#000000;fill-opacity:1;fill-rule:nonzero;stroke:none;stroke-width:0.264583;stroke-linecap:round;stroke-linejoin:round;stroke-miterlimit:4;stroke-dasharray:none;stroke-dashoffset:0;stroke-opacity:1;color-rendering:auto;image-rendering:auto;shape-rendering:auto;text-rendering:auto;enable-background:accumulate;stop-color:#000000"
       d="m 28.734812,74.165813 c -0.374759,-0.02123 -0.639587,0.176135 -0.79309,0.5906 -0.167149,0.451302 -0.317097,0.871769 -0.451165,1.262016 -0.130663,0.381035 -0.244492,0.715529 -0.341038,1.004461 l -0.330379,0.977818 -0.248676,0.75579 c -0.336053,1.048618 -0.63714,1.932633 -0.903213,2.651035 -0.133041,0.359204 -0.233883,0.615064 -0.301072,0.768222 -0.05902,0.187621 -0.03138,0.355052 0.0817,0.501789 0.122292,0.150148 0.302551,0.269133 0.541754,0.357912 0.239204,0.08877 0.441603,0.08063 0.606584,-0.02574 0.168395,-0.115598 0.293806,-0.284293 0.375678,-0.50534 0.156913,-0.423669 0.357898,-1.06607 0.603918,-1.928109 0.456167,-1.485951 0.841613,-2.652732 1.155445,-3.500074 0.0888,0.4101 0.24326,1.022959 0.464484,1.838407 l 0.314396,1.184751 c 0.06192,0.284889 0.149047,0.516726 0.261107,0.694507 0.112056,0.177781 0.288336,0.310876 0.52754,0.399655 0.101202,0.03756 0.255137,0.01616 0.462711,-0.06395 l 0.309953,-0.07371 c 0.885588,-0.58276 2.075577,-1.267086 3.570236,-2.053328 -0.589417,1.478403 -1.212902,3.10618 -1.871264,4.883764 -0.177381,0.47893 -0.259116,0.868122 -0.244233,1.166989 0.0241,0.302273 0.219928,0.521511 0.587935,0.658094 0.165603,0.06146 0.348254,0.07682 0.54797,0.04619 0.203127,-0.03983 0.350323,-0.168705 0.441394,-0.386332 0.08,-0.724601 0.379384,-1.786615 0.897888,-3.186574 0.163739,-0.442094 0.312054,-0.82729 0.444059,-1.155441 0.135414,-0.337363 0.252026,-0.623648 0.349918,-0.859701 0.398391,-0.962626 0.701351,-1.725077 0.909433,-2.286903 0.04433,-0.119736 3.6e-4,-0.298048 -0.13144,-0.535538 -0.119195,-0.243287 -0.243323,-0.389147 -0.372122,-0.436955 -0.174807,-0.06489 -0.355534,-0.08525 -0.542641,-0.06039 -0.183692,0.01563 -0.337195,0.0632 -0.460933,0.142985 -0.541667,0.417067 -1.03127,0.765093 -1.468949,1.042652 -0.428479,0.280984 -0.947225,0.565195 -1.555982,0.852594 -0.353119,0.16228 -0.827821,0.425779 -1.423654,0.791317 -0.208615,-0.821246 -0.409246,-1.691783 -0.602146,-2.611957 -0.192904,-0.920179 -0.266045,-1.555341 -0.220255,-1.905018 -0.02719,-0.209138 -0.120664,-0.395704 -0.279756,-0.559516 -0.149893,-0.160392 -0.316896,-0.274517 -0.500898,-0.342811 -0.149506,-0.05549 -0.28628,-0.08706 -0.4112,-0.09414 z m 76.810728,0.838384 c -0.0391,-0.0059 -0.0814,-0.005 -0.12611,0.0018 -0.0838,9.09e-4 -0.21248,0.03473 -0.38633,0.102134 -0.15555,0.06032 -0.28125,0.156531 -0.37745,0.28864 -0.0998,0.122951 -0.15637,0.249794 -0.16874,0.381003 -0.12115,0.910752 -0.20333,1.691265 -0.2469,2.340191 -0.0344,0.64538 -0.0535,1.411068 -0.0577,2.297566 l -0.0284,1.559538 c -0.0503,0.767421 -0.081,1.379784 -0.0932,1.837515 -0.007,0.445023 0.0202,0.855373 0.0817,1.231824 0.0603,0.155708 0.19064,0.247575 0.39078,0.275313 0.20574,0.01505 0.40883,-0.0161 0.61014,-0.09414 0.23789,-0.09224 0.37135,-0.223215 0.40054,-0.392547 0.0466,-0.260344 0.0613,-0.618374 0.0426,-1.074624 -0.01,-0.270083 -0.0136,-0.495309 -0.01,-0.675859 0.009,-0.193255 0.0452,-0.386373 0.10746,-0.579055 0.28365,-0.109986 0.6708,-0.239362 1.16077,-0.387218 0.1408,-0.04406 0.33646,-0.109637 0.58705,-0.196274 0.25975,-0.09018 0.49055,-0.17417 0.69184,-0.252227 0.41175,-0.15966 0.88053,-0.388538 1.40678,-0.6874 0.20253,0.142681 0.46626,0.387928 0.79043,0.73625 0.19988,0.217446 0.35972,0.387173 0.48048,0.508892 0.12635,0.109009 0.27907,0.218123 0.45826,0.327714 0.20813,0.12999 0.44515,0.143746 0.7105,0.04083 0.21045,-0.0816 0.35848,-0.201876 0.44406,-0.361464 0.0912,-0.172296 0.0939,-0.368989 0.009,-0.588821 -0.0354,-0.09159 -0.17266,-0.228041 -0.4112,-0.409423 -0.3705,-0.277691 -0.73634,-0.598453 -1.0986,-0.963609 -0.35665,-0.377865 -0.79062,-0.847519 -1.30198,-1.407667 l -0.57017,-0.616355 c -0.69854,-0.771986 -1.26111,-1.369762 -1.68832,-1.794003 -0.41805,-0.427789 -0.87677,-0.824356 -1.37569,-1.189189 -0.15175,-0.120223 -0.25981,-0.19396 -0.32328,-0.22203 -0.0335,-0.01861 -0.0692,-0.0314 -0.10835,-0.0373 z m 0.14477,1.761137 c 0.47147,0.375478 1.00845,0.920642 1.61104,1.63503 0.0721,0.0774 0.1908,0.220965 0.35614,0.430735 0.46206,0.568737 0.80823,0.960798 1.0391,1.176757 -0.24054,0.167008 -0.61729,0.350173 -1.12969,0.548861 -0.74114,0.287386 -1.41807,0.507851 -2.03202,0.661645 -0.0274,-1.158646 -0.0119,-1.975736 0.0462,-2.451206 0.0692,-0.827412 0.10551,-1.494745 0.10924,-2.001822 z M 92.895179,78.81778 c -0.08682,-0.0046 -0.175752,0.0041 -0.266436,0.02576 -0.267278,0.0637 -0.44937,0.167481 -0.546193,0.311727 -0.0873,0.141971 -0.101706,0.336822 -0.04261,0.58527 0.12497,0.525571 0.327537,1.184306 0.606584,1.976068 0.03683,0.112397 0.126402,0.38394 0.269101,0.814403 0.142704,0.430466 0.261589,0.846464 0.357025,1.247806 0.122697,0.516013 0.267961,1.274303 0.435178,2.274476 0.102693,0.601554 0.171074,0.973917 0.205155,1.117253 0.05908,0.248448 0.200025,0.417052 0.422745,0.505335 0.220447,0.07871 0.428007,0.104531 0.623458,0.07816 0.38364,-0.04097 0.809382,-0.116771 1.277113,-0.228245 0.229096,-0.0546 0.454476,-0.123665 0.676751,-0.206932 0.07636,-0.01819 0.195242,-0.05124 0.355247,-0.09947 0.167272,-0.06006 0.317524,-0.106695 0.451161,-0.138547 0.410459,-0.09782 0.848093,-0.166008 1.31264,-0.206042 0.257275,-0.02092 0.443195,-0.04551 0.557738,-0.07283 0.162275,-0.0387 0.282388,-0.148411 0.360577,-0.328606 0.08773,-0.182469 0.108507,-0.369284 0.06306,-0.560402 -0.05681,-0.23889 -0.198576,-0.391375 -0.426298,-0.458268 -0.22318,-0.04779 -0.43501,-0.06767 -0.635008,-0.06039 -0.202271,-0.0023 -0.418344,0.02355 -0.647439,0.07815 -0.248185,0.05915 -0.53341,0.152358 -0.856146,0.27976 -0.56137,0.184279 -0.923007,0.296144 -1.085281,0.334817 -0.229096,0.0546 -0.558497,0.112197 -0.987586,0.174075 -0.185397,-1.07662 -0.325537,-1.815407 -0.420968,-2.216745 -0.224948,-0.94602 -0.44535,-1.786896 -0.660763,-2.523146 -0.208142,-0.748082 -0.459073,-1.486479 -0.753124,-2.21408 -0.08544,-0.23207 -0.216209,-0.376911 -0.391662,-0.436069 -0.08295,-0.03072 -0.167181,-0.04873 -0.254,-0.05328 z m -47.959302,0.176735 c -0.07893,0.0063 -0.156523,0.02471 -0.232688,0.05417 -0.150365,0.0493 -0.265886,0.125538 -0.347253,0.229136 -0.594483,0.700023 -1.085764,1.311121 -1.473392,1.833073 -0.37802,0.523934 -0.808232,1.157586 -1.291323,1.900576 l -0.867695,1.295765 c -0.457418,0.61791 -0.814907,1.115666 -1.072845,1.493818 -0.246352,0.370503 -0.444868,0.731021 -0.596816,1.080839 -0.03356,0.163571 0.02615,0.310481 0.179399,0.442285 0.16484,0.124156 0.352501,0.208733 0.563954,0.252227 0.249894,0.0514 0.432726,0.01373 0.548861,-0.112793 0.1684,-0.185979 0.391261,-0.511293 0.666974,-0.976045 0.196056,-0.320684 0.350264,-0.560225 0.462711,-0.717598 0.122055,-0.155399 0.256265,-0.297848 0.403206,-0.428075 0.288341,0.05931 0.668561,0.157519 1.141235,0.294857 0.124947,0.02569 0.310899,0.07411 0.556846,0.144764 0.257534,0.063 0.491945,0.116366 0.703393,0.15986 0.384458,0.07908 0.888284,0.137006 1.511578,0.174961 0.07978,0.19692 0.137834,0.424624 0.174957,0.682962 0.04675,0.260316 0.07504,0.416862 0.08437,0.468927 0.03883,0.298803 0.08109,0.558142 0.126111,0.777993 0.047,0.210229 0.115566,0.409318 0.206933,0.598589 0.104666,0.222093 0.296771,0.361859 0.575503,0.419195 0.221061,0.04547 0.410132,0.02474 0.568396,-0.06306 0.169846,-0.09543 0.278532,-0.258429 0.325936,-0.489353 0.01974,-0.09622 -0.02101,-0.285707 -0.123446,-0.567509 -0.161275,-0.4343 -0.295289,-0.902531 -0.40232,-1.405893 -0.09544,-0.511011 -0.207028,-1.140899 -0.33393,-1.889026 l -0.145648,-0.82683 c -0.169686,-1.027692 -0.319716,-1.836319 -0.449387,-2.424569 -0.120064,-0.586271 -0.291233,-1.167976 -0.513335,-1.745153 -0.06254,-0.183342 -0.112801,-0.303469 -0.150979,-0.361463 -0.0362,-0.06762 -0.09507,-0.120159 -0.177626,-0.157196 -0.07096,-0.04468 -0.197497,-0.08589 -0.380112,-0.123451 -0.0817,-0.0168 -0.162638,-0.02231 -0.241568,-0.01598 z m 41.513337,1.053306 c -0.06458,-0.0025 -0.135024,0.0012 -0.210484,0.01066 -0.175271,0.02186 -0.361391,0.114807 -0.558629,0.277982 -0.197242,0.163176 -0.281893,0.356635 -0.254,0.580828 0.05093,0.4094 0.160165,1.049237 0.327714,1.919229 0.167591,0.790793 0.286135,1.463974 0.355248,2.019579 0.110341,0.887025 0.05707,1.650577 -0.159861,2.29135 -0.11457,0.350841 -0.319083,0.614213 -0.61369,0.789534 -0.284875,0.174106 -0.656061,0.2893 -1.113701,0.346367 -0.2629,0.03278 -0.537312,0.01282 -0.823288,-0.06039 -0.27745,-0.08419 -0.510943,-0.213799 -0.700723,-0.38811 -0.246957,-0.236471 -0.436715,-0.449883 -0.569288,-0.641219 -0.124046,-0.202303 -0.25576,-0.502971 -0.394321,-0.90144 -0.213926,-0.606842 -0.378602,-1.373326 -0.493795,-2.299339 l -0.127002,-1.142121 c -0.0557,-0.606774 -0.100716,-1.051278 -0.135883,-1.333958 -0.06427,-0.516613 -0.403462,-0.737251 -1.016893,-0.660758 -0.175266,0.02186 -0.332775,0.111433 -0.471591,0.267323 -0.129081,0.154681 -0.183706,0.309417 -0.164303,0.465376 0.153994,1.23793 0.296444,2.259493 0.426297,3.064896 0.139589,0.804185 0.311486,1.515458 0.516886,2.133263 0.34759,1.045512 0.86112,1.833328 1.539998,2.362395 0.67766,0.519319 1.576567,0.708917 2.696326,0.569283 0.720539,-0.08985 1.340723,-0.350464 1.86061,-0.781545 0.519882,-0.43108 0.898852,-0.95892 1.137679,-1.582628 0.237626,-0.633448 0.315146,-1.28126 0.232687,-1.944092 -0.03879,-0.311917 -0.07976,-0.603968 -0.123446,-0.875684 -0.0437,-0.271716 -0.08292,-0.508788 -0.118122,-0.712269 -0.138375,-0.79444 -0.231014,-1.377414 -0.277091,-1.747818 -0.01332,-0.107222 -0.02615,-0.288554 -0.0382,-0.544418 0.0036,-0.208343 -0.01191,-0.453572 -0.04707,-0.736251 -0.02787,-0.224189 -0.110328,-0.411928 -0.247784,-0.563067 -0.09579,-0.114266 -0.240554,-0.175561 -0.434291,-0.182955 z m -32.003362,0.601258 c -0.161543,0.0098 -0.31259,0.05655 -0.452943,0.140321 -0.177349,0.112556 -0.276846,0.286486 -0.297517,0.521329 -0.04047,0.459896 -0.07285,1.171828 -0.09858,2.135923 -0.0082,0.876894 -0.04274,1.652596 -0.102134,2.327759 -0.02151,0.244624 -0.05503,0.522547 -0.102134,0.833946 -0.04709,0.311395 -0.08115,0.530864 -0.102133,0.657207 -0.129258,0.797196 -0.20716,1.396395 -0.232688,1.798442 -0.0071,0.305056 0.03247,0.525825 0.119008,0.661649 0.09719,0.126902 0.253891,0.19953 0.468927,0.218478 0.283457,0.02501 0.495023,-0.03051 0.635008,-0.166081 0.150615,-0.144491 0.257428,-0.356462 0.321498,-0.636781 0.04913,-0.22247 0.110323,-0.690669 0.182951,-1.404115 0.08327,-0.722364 0.145123,-1.308366 0.184728,-1.758477 0.08954,-1.017638 0.12543,-1.882782 0.109242,-2.594196 0.555814,0.847729 1.261798,2.064269 2.117275,3.648394 0.761732,1.418093 1.348158,2.425805 1.758472,3.024044 0.04197,0.08259 0.123192,0.163648 0.244233,0.243346 0.131672,0.07077 0.290318,0.115071 0.476034,0.131441 0.351878,0.03101 0.61756,-0.01973 0.796641,-0.151867 0.189699,-0.141053 0.290832,-0.290168 0.304624,-0.446723 0.02355,-0.155704 0.04975,-0.394698 0.07816,-0.717602 0.03529,-0.401183 0.07168,-1.034276 0.10835,-1.898797 0.04011,-0.903668 0.08409,-1.624399 0.131441,-2.16257 0.03015,-0.342475 0.09518,-0.86468 0.196274,-1.565754 0.102816,-0.72064 0.171628,-1.28091 0.206932,-1.682097 0.0181,-0.205482 -0.0565,-0.360023 -0.224693,-0.463598 -0.168187,-0.103567 -0.364897,-0.16579 -0.589714,-0.185616 -0.263908,-0.02326 -0.473887,0.06678 -0.629673,0.269988 -0.145141,0.194283 -0.22991,0.433837 -0.254892,0.717599 -0.06372,0.724091 -0.112783,1.562589 -0.147428,2.516043 -0.0083,0.206342 -0.02824,0.598603 -0.0595,1.177644 -0.03124,0.579032 -0.06888,1.118226 -0.112788,1.617264 -0.02496,0.283766 -0.04927,0.503285 -0.07283,0.658985 L 58.21414,85.880101 c -1.252572,-2.22065 -2.252462,-3.896764 -3.000067,-5.027641 -0.206427,-0.116821 -0.407544,-0.183496 -0.603031,-0.200716 -0.0562,-0.005 -0.111342,-0.0059 -0.16519,-0.0027 z m -9.613,0.111015 c 0.193268,0.571247 0.349632,1.32058 0.469818,2.247829 0.122423,0.867545 0.227767,1.480522 0.314391,1.839293 -0.302168,0.008 -0.708208,-0.04088 -1.217609,-0.14565 -0.711241,-0.146296 -1.366965,-0.320484 -1.966295,-0.523988 0.483359,-0.793081 0.891599,-1.391202 1.224716,-1.794004 0.50574,-0.658111 0.897556,-1.199198 1.174979,-1.62348 z m 23.024482,0.561293 c -0.549398,0.0097 -0.935585,0.07972 -1.158996,0.211371 -0.223598,0.121832 -0.333644,0.300714 -0.329492,0.536425 0.0027,0.147319 0.0593,0.288918 0.169632,0.424519 0.110323,0.13561 0.302577,0.201126 0.577276,0.196274 0.03892,0.539654 0.07382,1.1337 0.104799,1.781567 0.04061,0.637863 0.06889,1.42315 0.08526,2.356179 0.0041,0.235712 -0.02756,0.668488 -0.09503,1.29843 -0.06712,0.649591 -0.09807,1.112242 -0.09325,1.387241 0.0072,0.412497 0.149757,0.71868 0.428071,0.920092 0.288127,0.201231 0.736345,0.296676 1.344611,0.285972 0.932024,-0.01642 1.696189,-0.09886 2.292237,-0.246893 0.59587,-0.157851 1.068207,-0.352274 1.417438,-0.584384 0.359036,-0.232283 0.722395,-0.533265 1.088834,-0.903218 0.357143,-0.340314 0.643519,-0.782699 0.859696,-1.32685 0.225826,-0.554136 0.334731,-1.081739 0.325941,-1.582628 C 74.862492,85.397815 74.744275,84.820211 74.52,84.342767 74.305537,83.865151 74.032511,83.437658 73.702041,83.06032 73.051432,82.334947 72.243237,81.858172 71.277477,81.629563 70.321535,81.400781 69.181783,81.298074 67.857334,81.321387 Z m 0.744244,1.327737 c 0.745613,-0.01314 1.379597,0.02988 1.901462,0.128776 0.521688,0.08906 0.960821,0.243037 1.31797,0.462711 0.505681,0.295652 0.875348,0.677332 1.109259,1.144786 0.243723,0.467276 0.371967,1.034672 0.383667,1.702523 0.01119,0.638382 -0.155431,1.206128 -0.500011,1.703411 -0.344748,0.487461 -0.804349,0.873811 -1.378361,1.158995 -0.574184,0.275372 -1.180281,0.418636 -1.81798,0.429849 -0.431672,0.0076 -0.765653,-0.0057 -1.001796,-0.04083 0.05217,-0.384067 0.09297,-0.851653 0.12256,-1.402342 0.03942,-0.550853 0.05591,-1.027196 0.04885,-1.429871 -0.0074,-0.422318 -0.03833,-1.055743 -0.09236,-1.899684 l -0.03729,-0.456495 c -0.02665,-0.402328 -0.04543,-0.902708 -0.05595,-1.501806 z"
       sodipodi:nodetypes="ssccccsccscsccccsscccscsccsccscscccccsccsssscsccccccccsccccccsccccscscccccccssccccscccsscscsscsccsccscscsccscscscccsssccccccccsccccccscccccscsccccccccsssssscsccsccccccsscscscsscsscscscssscscsscccscccsccccsccscscssscscsscccssscccscccsccsccscscsccccscccsscccsccsccsccss" />
    <g
       id="g1885"
       style="fill:#002b00;fill-opacity:1">
      <path
         id="path1090"
         style="color:#000000;font-style:normal;font-variant:normal;font-weight:normal;font-stretch:normal;font-size:medium;line-height:normal;font-family:sans-serif;font-variant-ligatures:normal;font-variant-position:normal;font-variant-caps:normal;font-variant-numeric:normal;font-variant-alternates:normal;font-variant-east-asian:normal;font-feature-settings:normal;font-variation-settings:normal;text-indent:0;text-align:start;text-decoration:none;text-decoration-line:none;text-decoration-style:solid;text-decoration-color:#000000;letter-spacing:normal;word-spacing:normal;text-transform:none;writing-mode:lr-tb;direction:ltr;text-orientation:mixed;dominant-baseline:auto;baseline-shift:baseline;text-anchor:start;white-space:normal;shape-padding:0;shape-margin:0;inline-size:0;clip-rule:nonzero;display:inline;overflow:visible;visibility:visible;isolation:auto;mix-blend-mode:normal;color-interpolation:sRGB;color-interpolation-filters:linearRGB;solid-color:#000000;solid-opacity:1;vector-effect:none;fill:#002b00;fill-opacity:1;fill-rule:nonzero;stroke:none;stroke-width:0.264583;stroke-linecap:round;stroke-linejoin:round;stroke-miterlimit:4;stroke-dasharray:none;stroke-dashoffset:0;stroke-opacity:1;color-rendering:auto;image-rendering:auto;shape-rendering:auto;text-rendering:auto;enable-background:accumulate;stop-color:#000000"
         d="m 35.542814,35.257657 c -0.415716,-0.0035 -0.847456,0.01237 -1.293101,0.0524 a 0.9095246,0.9095246 0 0 0 -0.02396,0.0018 c -5.410017,0.631351 -10.640938,3.578489 -15.30495,6.792332 -4.664013,3.213848 -8.791355,6.729004 -11.7533664,8.544593 a 0.9095246,0.9095246 0 0 0 0.177626,1.635025 c 8.5638414,2.961148 14.0472264,6.650316 18.8982774,9.605893 4.851055,2.955578 9.158024,5.20805 15.053614,4.943268 a 0.9095246,0.9095246 0 0 0 0.0151,-9.09e-4 c 1.877753,-0.114766 4.004513,-0.708922 5.677739,-1.545328 a 0.90943366,0.90943366 0 0 0 0.406763,-1.220274 0.90943366,0.90943366 0 0 0 -1.219387,-0.406758 c -1.415629,0.70764 -3.408976,1.259093 -4.972579,1.35527 -3.266453,0.14485 -5.957895,-0.533924 -8.636955,-1.737159 0.686223,-0.765693 1.739988,-1.815261 2.986744,-2.83932 1.775183,-1.458091 3.934028,-2.86608 5.858031,-3.43524 a 0.68207525,0.68207525 0 0 0 0.460932,-0.848156 0.68207525,0.68207525 0 0 0 -0.668752,-0.488466 0.68207525,0.68207525 0 0 0 -0.179399,0.02842 c -2.234315,0.660962 -4.479993,2.16417 -6.336729,3.689249 -1.468263,1.205996 -2.662931,2.398704 -3.405938,3.278931 -1.054916,-0.53521 -2.130844,-1.15398 -3.243409,-1.819754 0.743084,-0.944933 1.870159,-2.33608 3.397057,-3.731874 2.052642,-1.876403 4.777606,-3.703814 8.069446,-4.309152 a 0.68207525,0.68207525 0 0 0 0.547079,-0.793981 0.68207525,0.68207525 0 0 0 -0.659871,-0.558624 0.68207525,0.68207525 0 0 0 -0.134105,0.01154 c -3.638499,0.669084 -6.572618,2.659371 -8.742641,4.643087 -1.691378,1.546155 -2.928845,3.097704 -3.657274,4.030282 -1.397094,-0.854063 -2.879448,-1.770931 -4.497436,-2.724749 2.642915,-3.480376 4.748818,-5.799964 11.680544,-8.513509 a 0.68207525,0.68207525 0 0 0 0.01241,-0.0053 0.68207525,0.68207525 0 0 0 0.03019,-0.01332 0.68207525,0.68207525 0 0 0 0.01241,-0.0062 0.68207525,0.68207525 0 0 0 0.02933,-0.0151 0.68207525,0.68207525 0 0 0 0.01241,-0.0071 0.68207525,0.68207525 0 0 0 0.02751,-0.01687 0.68207525,0.68207525 0 0 0 0.01155,-0.008 0.68207525,0.68207525 0 0 0 0.0977,-0.08082 0.68207525,0.68207525 0 0 0 0.0098,-0.0098 0.68207525,0.68207525 0 0 0 0.02219,-0.02487 0.68207525,0.68207525 0 0 0 0.0089,-0.0098 0.68207525,0.68207525 0 0 0 0.0036,-0.0045 c 1.229872,-0.02503 2.345966,0.0072 3.274497,0.131445 a 0.68207525,0.68207525 0 0 0 0.766444,-0.58527 0.68207525,0.68207525 0 0 0 -0.585271,-0.766448 c -0.89742,-0.120068 -1.905609,-0.170978 -3.000953,-0.166081 -0.525066,0.0024 -1.076238,0.02177 -1.638577,0.04796 -4.805579,-1.435137 -9.576323,-2.732862 -12.882164,-3.954791 2.379806,-1.623743 4.878625,-3.134767 7.417568,-4.278958 1.721112,1.177585 4.530289,2.504462 6.94509,3.08444 a 0.68207525,0.68207525 0 0 0 0.822397,-0.504454 0.68207525,0.68207525 0 0 0 -0.503563,-0.822396 c -1.841503,-0.44228 -4.136641,-1.473978 -5.723039,-2.403251 1.73871,-0.672021 3.486637,-1.153412 5.216812,-1.356157 1.528517,-0.13495 2.866853,0.05823 3.971665,0.321499 a 0.90943366,0.90943366 0 0 0 1.09594,-0.674081 0.90943366,0.90943366 0 0 0 -0.674081,-1.095054 c -0.926936,-0.220883 -2.03268,-0.405016 -3.279823,-0.415639 z m -16.636242,9.079239 c 2.700431,1.081185 6.428436,2.159246 10.423851,3.319788 -1.349791,0.1439 -2.762996,0.331379 -4.194586,0.531982 a 0.68207525,0.68207525 0 0 0 -0.196274,-0.03286 0.68207525,0.68207525 0 0 0 -0.268214,0.04973 c -0.05691,0.0229 -0.116549,0.0499 -0.17407,0.07371 -0.426106,0.06108 -0.844937,0.116462 -1.274453,0.180291 -0.08059,0.01197 -0.16178,0.02524 -0.242455,0.0373 -2.622025,-0.939081 -4.932441,-1.602654 -6.787891,-2.188325 0.880992,-0.652846 1.775474,-1.307852 2.714092,-1.971625 z m -4.053378,2.967205 c 1.469622,0.492072 3.213638,0.997913 5.211482,1.643906 -3.284365,0.516208 -6.519702,1.044412 -9.365211,1.427211 1.293378,-0.923712 2.687299,-1.973226 4.153729,-3.071117 z m 15.696616,1.618151 c -4.94259,2.362645 -7.057183,4.747903 -9.376762,7.797684 -1.335967,-0.765993 -2.755152,-1.543086 -4.297606,-2.316214 1.824893,-1.3888 5.368624,-3.679268 7.999288,-4.802059 1.97162,-0.27871 3.886415,-0.514831 5.67508,-0.679411 z m -9.903415,1.316191 c -2.075459,1.212007 -4.010843,2.556582 -5.136881,3.497414 -1.434923,-0.684094 -2.961689,-1.358908 -4.606673,-2.010699 2.983352,-0.400983 6.351212,-0.955182 9.743554,-1.486715 z" />
      <path
         id="path845"
         style="color:#000000;font-style:normal;font-variant:normal;font-weight:normal;font-stretch:normal;font-size:medium;line-height:normal;font-family:sans-serif;font-variant-ligatures:normal;font-variant-position:normal;font-variant-caps:normal;font-variant-numeric:normal;font-variant-alternates:normal;font-variant-east-asian:normal;font-feature-settings:normal;font-variation-settings:normal;text-indent:0;text-align:start;text-decoration:none;text-decoration-line:none;text-decoration-style:solid;text-decoration-color:#000000;letter-spacing:normal;word-spacing:normal;text-transform:none;writing-mode:lr-tb;direction:ltr;text-orientation:mixed;dominant-baseline:auto;baseline-shift:baseline;text-anchor:start;white-space:normal;shape-padding:0;shape-margin:0;inline-size:0;clip-rule:nonzero;display:inline;overflow:visible;visibility:visible;isolation:auto;mix-blend-mode:normal;color-interpolation:sRGB;color-interpolation-filters:linearRGB;solid-color:#000000;solid-opacity:1;vector-effect:none;fill:#002b00;fill-opacity:1;fill-rule:nonzero;stroke:none;stroke-width:0.264583;stroke-linecap:round;stroke-linejoin:miter;stroke-miterlimit:4;stroke-dasharray:none;stroke-dashoffset:0;stroke-opacity:1;color-rendering:auto;image-rendering:auto;shape-rendering:auto;text-rendering:auto;enable-background:accumulate;stop-color:#000000"
         d="m 101.29342,35.264221 c -1.95915,0.06754 -4.501158,0.619733 -6.364265,2.346407 a 0.90943366,0.90943366 0 0 0 -0.04885,1.285111 0.90943366,0.90943366 0 0 0 1.285999,0.04885 c 1.808963,-1.676505 5.217226,-1.983016 6.619156,-1.807322 a 0.9095246,0.9095246 0 0 0 0.008,9.09e-4 c 1.44346,0.168455 2.88382,0.52418 4.31093,1.016011 -1.96209,0.983507 -4.90108,2.283969 -7.555234,2.837537 a 0.68207525,0.68207525 0 0 0 -0.528431,0.8073 0.68207525,0.68207525 0 0 0 0.806413,0.528431 c 3.455522,-0.720708 7.105022,-2.507213 8.980662,-3.518726 2.6175,1.103193 5.16909,2.623575 7.59342,4.27718 -3.36351,1.248525 -8.26467,2.574893 -13.1788,4.047157 -0.27911,-0.0054 -0.56322,-0.01378 -0.83217,-0.01419 -1.03,-0.0014 -1.98313,0.03415 -2.841094,0.112792 a 0.68207525,0.68207525 0 0 0 -0.617242,0.74158 0.68207525,0.68207525 0 0 0 0.74158,0.616355 c 0.801376,-0.07346 1.706536,-0.105244 2.695446,-0.101247 a 0.68207525,0.68207525 0 0 0 0.0639,0.04707 0.68207525,0.68207525 0 0 0 0.0196,0.01241 0.68207525,0.68207525 0 0 0 0.016,0.0098 0.68207525,0.68207525 0 0 0 0.0115,0.0062 0.68207525,0.68207525 0 0 0 0.0773,0.03642 0.68207525,0.68207525 0 0 0 0.002,9.09e-4 c 6.93201,2.71365 9.03837,5.032897 11.68143,8.513504 -1.61196,0.950181 -3.08892,1.862702 -4.48145,2.714091 -0.60745,-0.836079 -1.55292,-2.141452 -2.86241,-3.411263 -1.73975,-1.687049 -4.1793,-3.356456 -7.486842,-3.938807 a 0.68207525,0.68207525 0 0 0 -0.140321,-0.01064 0.68207525,0.68207525 0 0 0 -0.650104,0.563958 0.68207525,0.68207525 0 0 0 0.553299,0.789538 c 2.983458,0.525289 5.166848,2.016519 6.773688,3.574675 1.1768,1.141153 2.00746,2.285425 2.63416,3.141279 -0.87894,0.526257 -1.73816,1.027824 -2.57644,1.475165 -1.19727,-1.638931 -3.3446,-4.194476 -7.072976,-5.47259 a 0.68207525,0.68207525 0 0 0 -0.230023,-0.03642 0.68207525,0.68207525 0 0 0 -0.636781,0.460933 0.68207525,0.68207525 0 0 0 0.424519,0.865918 c 3.237761,1.109932 5.122801,3.249529 6.280781,4.809162 -1.57419,0.761928 -3.13639,1.352455 -4.797622,1.709631 -0.854477,-1.134141 -2.203171,-2.509432 -3.630632,-3.326004 a 0.68207525,0.68207525 0 0 0 -0.359686,-0.0897 0.68207525,0.68207525 0 0 0 -0.57106,0.343703 0.68207525,0.68207525 0 0 0 0.253113,0.93075 c 0.942556,0.539185 1.984571,1.522256 2.750505,2.401469 -0.961594,0.116285 -1.963322,0.158764 -3.0276,0.111019 -2.019197,-0.09131 -3.024022,-0.711395 -4.302044,-1.614604 a 0.90943366,0.90943366 0 0 0 -1.267346,0.217591 0.90943366,0.90943366 0 0 0 0.217587,1.267346 c 1.348349,0.952905 2.869508,1.838238 5.269208,1.946757 a 0.9095246,0.9095246 0 0 0 9.1e-4,0 c 5.895597,0.264777 10.202567,-1.987691 15.053617,-4.943268 4.85105,-2.955582 10.33355,-6.644745 18.89739,-9.605893 a 0.9095246,0.9095246 0 0 0 0.17851,-1.63503 c -2.95984,-1.814261 -6.928,-5.24811 -11.4363,-8.384728 -4.50729,-3.135919 -9.58885,-6.004627 -14.99056,-6.636024 -0.47613,-0.05945 -1.06271,-0.09084 -1.71407,-0.06838 z m 16.45417,8.75685 c 0.93385,0.66355 1.82784,1.32103 2.70521,1.976954 -1.76861,0.559607 -3.96375,1.200203 -6.44419,2.072868 -2.3144,-0.302109 -4.57668,-0.559002 -6.68309,-0.725592 4.00091,-1.162038 7.72992,-2.240917 10.42207,-3.32423 z m 4.03561,2.976085 c 1.33715,1.010727 2.61641,1.98046 3.82069,2.854417 -2.7574,-0.472755 -5.66238,-0.9417 -8.55081,-1.361486 1.79562,-0.57051 3.38547,-1.041506 4.73012,-1.492931 z m -15.70904,1.640355 c 1.6466,0.11126 3.4122,0.279378 5.25322,0.491131 a 0.68207525,0.68207525 0 0 0 0.0941,0.04707 c 2.65216,1.067398 6.40927,3.490052 8.30479,4.932613 -1.54281,0.773219 -2.96226,1.550125 -4.29849,2.31621 -2.31595,-3.045007 -4.42771,-5.428046 -9.35367,-7.787026 z m 9.3812,1.023113 c 3.55343,0.489675 7.16982,1.068134 10.55529,1.64924 -1.76207,0.689123 -3.39533,1.40412 -4.91929,2.130593 -1.21606,-1.015946 -3.38046,-2.500965 -5.636,-3.779833 z" />
    </g>
    <path
       id="path1152"
       style="color:#000000;font-style:normal;font-variant:normal;font-weight:normal;font-stretch:normal;font-size:medium;line-height:normal;font-family:sans-serif;font-variant-ligatures:normal;font-variant-position:normal;font-variant-caps:normal;font-variant-numeric:normal;font-variant-alternates:normal;font-variant-east-asian:normal;font-feature-settings:normal;font-variation-settings:normal;text-indent:0;text-align:start;text-decoration:none;text-decoration-line:none;text-decoration-style:solid;text-decoration-color:#000000;letter-spacing:normal;word-spacing:normal;text-transform:none;writing-mode:lr-tb;direction:ltr;text-orientation:mixed;dominant-baseline:auto;baseline-shift:baseline;text-anchor:start;white-space:normal;shape-padding:0;shape-margin:0;inline-size:0;clip-rule:nonzero;display:inline;overflow:visible;visibility:visible;isolation:auto;mix-blend-mode:normal;color-interpolation:sRGB;color-interpolation-filters:linearRGB;solid-color:#000000;solid-opacity:1;vector-effect:none;fill:#2b0000;fill-opacity:1;fill-rule:nonzero;stroke:none;stroke-width:0.264583;stroke-linecap:round;stroke-linejoin:round;stroke-miterlimit:4;stroke-dasharray:none;stroke-dashoffset:0;stroke-opacity:1;color-rendering:auto;image-rendering:auto;shape-rendering:auto;text-rendering:auto;enable-background:accumulate;stop-color:#000000"
       d="m 70.319198,27.450761 c -0.165699,0.0048 -0.325936,0.06032 -0.459155,0.158974 -1.052669,0.780421 -6.295904,6.103277 -7.462119,8.235939 0.08377,1.557803 0.57908,0.936064 0.971791,1.457302 1.148702,-1.74653 5.454308,-6.573051 6.480553,-7.500474 0.332198,1.544055 2.21634,6.58467 2.34081,8.157476 0.454262,-0.485433 0.901057,-0.190773 1.4628,-0.86952 -0.161292,-1.553263 -2.078114,-7.464972 -2.530935,-9.051761 -0.102015,-0.356671 -0.432931,-0.598734 -0.803748,-0.587936 z M 51.67403,38.500735 c -0.202535,0.200025 -0.285444,0.491556 -0.218473,0.768226 0.301573,1.241513 0.73565,2.778729 1.950308,4.252312 1.118626,1.357079 2.920519,2.622661 5.717709,3.676813 -0.04174,0.203458 -0.08777,0.374991 -0.13144,0.566618 0.387491,-0.65966 1.091156,-1.102181 1.888139,-1.187416 -0.04785,-0.296137 -0.255174,-0.541717 -0.53909,-0.638554 -3.03599,-1.034176 -4.695638,-2.251544 -5.683074,-3.449455 -0.844218,-1.024177 -1.193372,-2.056202 -1.46628,-3.080884 1.878038,-0.857655 5.978903,-1.621858 9.104761,-1.708349 1.137322,-0.03147 0.561392,-1.235467 -0.758002,-1.365889 -1.409357,-0.139315 -6.888628,0.396104 -9.864558,2.166578 z m 21.03803,0.479276 c 1.73362,0.290713 4.898908,1.323126 5.947443,1.644165 -0.08098,0.0625 -4.606756,3.06656 -4.68836,3.128006 0.292301,0.715583 1.306508,0.7446 2.183868,0.59236 0.962863,-0.664751 3.808404,-2.621142 4.727473,-3.464537 0.486124,-0.445938 0.2652,-1.254781 -0.380116,-1.391684 -1.740947,-0.368779 -7.854658,-2.23818 -6.250446,-1.39099 -0.987285,0.07744 -0.787506,0.496962 -1.539862,0.88268 z m 1.259083,4.772171 c -0.842813,0.527231 -1.677228,1.055221 -2.469858,1.611935 -0.381767,0.26814 -0.459342,0.802207 -0.169633,1.167877 0.201758,0.254359 0.494159,0.608502 0.762897,0.934302 0.976165,0.985029 1.086326,1.113756 1.58618,2.167899 0.06961,0.115007 0.140021,0.229691 0.205154,0.347253 0.670185,1.209693 1.005538,2.443894 0.688291,3.644842 -1.465525,-0.111719 -2.616013,-0.570597 -3.610201,-1.216727 -1.204797,-0.821546 -1.447118,-1.029292 -2.794908,-2.45387 -3.64e-4,-0.01006 -4.55e-4,-0.02013 -9.09e-4,-0.0302 -0.237594,-0.247106 -0.474484,-0.48988 -0.716711,-0.737136 -0.320635,-0.32778 -0.848975,-0.324964 -1.166099,0.0062 -1.68965,1.765847 -4.1371,2.528984 -6.572968,3.145717 0.01951,-0.533206 1.075356,-5.307806 1.167895,-5.762986 -0.701032,-0.398353 -1.505666,0.23048 -1.888139,1.187416 -0.08215,0.305725 -0.470114,1.861824 -0.549767,2.143012 -0.275849,0.97379 -0.47502,2.034008 -0.359685,3.580009 0.03715,0.497832 0.510733,0.844379 0.996466,0.729143 2.539621,-0.605315 5.451937,-1.385905 7.722192,-3.366856 1.897079,1.990951 4.162688,4.47495 8.346542,4.492994 0.318179,0.0014 0.607788,-0.183385 0.740692,-0.472483 0.918797,-1.99803 0.317597,-4.049472 -0.583492,-5.675966 -0.690065,-1.245556 -1.498447,-2.219346 -2.128825,-2.972534 0.936098,-0.616951 1.949025,-1.231933 2.978754,-1.877481 -0.09323,0.01446 -0.187202,0.02424 -0.281533,0.02931 -0.696354,0.03491 -1.379466,-0.188333 -1.902354,-0.621685 z"
       sodipodi:nodetypes="scccccccssccsccccscssccccccccccscccccccccccccssccccsccccc" />
    <path
       style="color:#000000;font-style:normal;font-variant:normal;font-weight:normal;font-stretch:normal;font-size:medium;line-height:normal;font-family:sans-serif;font-variant-ligatures:normal;font-variant-position:normal;font-variant-caps:normal;font-variant-numeric:normal;font-variant-alternates:normal;font-variant-east-asian:normal;font-feature-settings:normal;font-variation-settings:normal;text-indent:0;text-align:start;text-decoration:none;text-decoration-line:none;text-decoration-style:solid;text-decoration-color:#000000;letter-spacing:normal;word-spacing:normal;text-transform:none;writing-mode:lr-tb;direction:ltr;text-orientation:mixed;dominant-baseline:auto;baseline-shift:baseline;text-anchor:start;white-space:normal;shape-padding:0;shape-margin:0;inline-size:0;clip-rule:nonzero;display:inline;overflow:visible;visibility:visible;isolation:auto;mix-blend-mode:normal;color-interpolation:sRGB;color-interpolation-filters:linearRGB;solid-color:#000000;solid-opacity:1;fill:#ffcc00;fill-opacity:1;fill-rule:nonzero;stroke:none;stroke-width:0.565;stroke-linecap:round;stroke-linejoin:round;stroke-miterlimit:4;stroke-dasharray:none;stroke-dashoffset:0;stroke-opacity:1;color-rendering:auto;image-rendering:auto;shape-rendering:auto;text-rendering:auto;enable-background:accumulate;stop-color:#000000"
       d="m 65.802228,25.591929 c -0.753812,0.04051 -1.335408,0.688496 -1.294879,1.442307 0.01801,0.335072 0.160856,0.63132 0.374786,0.85881 -0.301554,3.336712 -0.524361,7.729704 0.681189,11.103262 -0.01191,0.007 -0.02374,0.0141 -0.03551,0.02131 -1.491717,-1.012996 -2.856563,-2.694957 -3.952126,-4.596901 -1.233424,-2.141275 -2.13124,-4.528125 -2.606633,-6.413994 0.154963,-0.235908 0.241846,-0.519069 0.225585,-0.82151 -0.04051,-0.753807 -0.6885,-1.335412 -1.442307,-1.294879 -0.753816,0.04052 -1.335403,0.688496 -1.294874,1.442307 0.03665,0.682012 0.572215,1.218255 1.231818,1.285107 0.522075,1.968447 1.430408,4.325958 2.681229,6.497476 1.133355,1.967524 2.538611,3.790047 4.241658,4.977017 -0.01833,0.04505 -0.0352,0.09066 -0.05062,0.136774 -1.739719,-0.171301 -3.569672,-1.075109 -5.242567,-2.318878 -1.787314,-1.328869 -3.378705,-3.022167 -4.476114,-4.454806 0.07993,-0.186753 0.12351,-0.391512 0.111902,-0.607475 -0.04052,-0.753811 -0.68761,-1.335403 -1.441416,-1.294874 -0.753816,0.04051 -1.335408,0.688496 -1.294879,1.442302 0.04051,0.753816 0.687604,1.335408 1.441416,1.294879 0.02164,-0.0014 0.0417,-0.0076 0.06306,-0.0098 1.170223,1.535024 2.834996,3.310676 4.765646,4.746107 1.524729,1.133637 3.225279,2.067612 4.99034,2.444995 -1.76391,0.388287 -3.501829,0.170036 -5.436176,-0.595043 -0.190613,-0.570242 -0.740183,-0.970752 -1.368588,-0.936962 -0.753812,0.04052 -1.335413,0.687609 -1.294879,1.441416 0.04051,0.753816 0.688491,1.335403 1.442307,1.294874 0.358903,-0.01928 0.675404,-0.179595 0.907656,-0.420076 2.484286,0.933915 4.878097,1.053524 7.265701,0.221138 l 9.1e-4,9.09e-4 c -0.973026,2.006415 -1.942878,3.609943 -3.297584,5.119116 -0.178726,-0.07144 -0.373873,-0.109569 -0.578168,-0.09858 -0.753816,0.04052 -1.335403,0.688496 -1.294874,1.442307 0.04051,0.753816 0.688491,1.334517 1.442303,1.293988 0.753811,-0.04051 1.335412,-0.687604 1.294879,-1.441416 -0.0014,-0.02569 -0.0088,-0.04933 -0.01155,-0.0746 1.520059,-1.650053 2.601548,-3.406579 3.633292,-5.50989 0.115248,0.02856 0.232537,0.04816 0.350809,0.05862 0.0341,1.165725 0.240823,2.345679 0.683849,3.423695 0.488689,1.18913 1.282142,2.257819 2.42279,2.969869 -0.0089,0.07594 -0.01578,0.152971 -0.01155,0.231801 0.04052,0.753811 0.688492,1.334516 1.442303,1.293988 0.753812,-0.04052 1.335413,-0.687605 1.294879,-1.441416 -0.04051,-0.753812 -0.688496,-1.335413 -1.442307,-1.294879 -0.152653,0.0082 -0.295061,0.0474 -0.429849,0.101247 -0.927908,-0.534206 -1.568513,-1.365819 -1.989386,-2.389928 -0.397313,-0.966796 -0.5812,-2.096058 -0.586157,-3.212324 0.158046,-0.09467 0.304151,-0.207977 0.435178,-0.337487 2.506403,0.627719 4.118911,0.564158 6.402449,0.07727 0.264986,0.35904 0.698504,0.584297 1.175866,0.558628 0.753811,-0.04051 1.335408,-0.688491 1.294879,-1.442307 -0.04051,-0.753811 -0.688496,-1.335403 -1.442303,-1.294874 -0.518745,0.02787 -0.950003,0.346335 -1.158996,0.785982 -2.16969,0.480295 -3.407538,0.560275 -5.616466,0.03997 0.02524,-0.159725 0.03356,-0.321665 0.02487,-0.483137 2.906299,-1.291946 4.968513,-2.435473 7.546348,-4.341123 0.127389,0.03128 0.258602,0.05091 0.3961,0.04352 0.753811,-0.04051 1.335407,-0.688492 1.294878,-1.442303 -0.04051,-0.753811 -0.687613,-1.335408 -1.44142,-1.294879 -0.753816,0.04051 -1.335408,0.688496 -1.294874,1.442303 0.0049,0.09085 0.01919,0.178717 0.04083,0.263772 -2.294265,1.681429 -4.123645,2.71019 -6.678653,3.86598 2.99115,-2.41481 6.475304,-6.868248 8.156483,-9.748879 0.0246,0 0.04798,0.0048 0.07283,0.0035 0.753807,-0.04052 1.335408,-0.688487 1.294875,-1.442303 -0.04052,-0.753807 -0.688492,-1.335412 -1.442303,-1.294879 -0.753811,0.04052 -1.335408,0.688496 -1.294879,1.442307 0.01141,0.211876 0.07522,0.407058 0.17141,0.581715 -1.686749,2.869904 -5.72985,7.854192 -8.447788,9.842137 -0.15444,-0.04704 -0.3134,-0.07771 -0.474256,-0.09148 -1.070131,-2.876507 -0.96842,-7.100313 -0.688292,-10.405199 0.603082,-0.170037 1.033249,-0.739861 0.998245,-1.390792 -0.04051,-0.753807 -0.688491,-1.335413 -1.442303,-1.294879 z"
       id="path1150" />
    <g
       id="g1881"
       style="fill:#2b0000;fill-opacity:1">
      <path
         style="color:#000000;font-style:normal;font-variant:normal;font-weight:normal;font-stretch:normal;font-size:medium;line-height:normal;font-family:sans-serif;font-variant-ligatures:normal;font-variant-position:normal;font-variant-caps:normal;font-variant-numeric:normal;font-variant-alternates:normal;font-variant-east-asian:normal;font-feature-settings:normal;font-variation-settings:normal;text-indent:0;text-align:start;text-decoration:none;text-decoration-line:none;text-decoration-style:solid;text-decoration-color:#000000;letter-spacing:normal;word-spacing:normal;text-transform:none;writing-mode:lr-tb;direction:ltr;text-orientation:mixed;dominant-baseline:auto;baseline-shift:baseline;text-anchor:start;white-space:normal;shape-padding:0;shape-margin:0;inline-size:0;clip-rule:nonzero;display:inline;overflow:visible;visibility:visible;isolation:auto;mix-blend-mode:normal;color-interpolation:sRGB;color-interpolation-filters:linearRGB;solid-color:#000000;solid-opacity:1;vector-effect:none;fill:#2b0000;fill-opacity:1;fill-rule:nonzero;stroke:none;stroke-width:0.264583;stroke-linecap:round;stroke-linejoin:round;stroke-miterlimit:4;stroke-dasharray:none;stroke-dashoffset:0;stroke-opacity:1;color-rendering:auto;image-rendering:auto;shape-rendering:auto;text-rendering:auto;enable-background:accumulate;stop-color:#000000"
         d="m 76.146335,54.084842 c 1.089888,0.851439 3.608869,2.606258 4.495467,3.249341 1.58804,1.151871 2.704133,2.087687 3.190125,3.097759 1.134828,2.35862 0.848234,3.556022 0.180286,5.455715 -0.28453,0.809228 -1.045148,2.082567 -2.068429,3.132394 -1.023277,1.049827 -2.296793,1.876453 -3.580004,2.061322 -2.926794,0.421668 -7.120879,0.01596 -10.170738,-0.527539 -0.01032,-0.0018 -0.02069,-0.0036 -0.0311,-0.0053 -1.639687,-0.231937 -3.151042,-0.03356 -4.485,0.09414 -1.333957,0.127717 -2.470144,0.176562 -3.429915,-0.160751 -0.904318,-0.317815 -2.033594,-1.284671 -2.97875,-2.457422 -0.881109,-1.093285 -2.13119,-3.568927 -2.541326,-4.525551 -0.515449,0.349518 -0.972979,0.692187 -1.469561,0.962366 0.495545,1.095149 1.706787,3.530646 2.629862,4.675996 1.061782,1.31746 2.313999,2.505476 3.77184,3.017828 1.402383,0.492863 2.815988,0.384422 4.187482,0.253113 1.367247,-0.130899 2.713109,-0.293215 4.05426,-0.105685 3.166162,0.56304 7.413531,1.009431 10.715152,0.53376 1.83411,-0.26424 3.393793,-1.343861 4.597792,-2.579099 1.203999,-1.235234 2.064678,-2.62583 2.470749,-3.78072 0.713247,-2.028542 1.059522,-4.080893 -0.254891,-6.812759 -0.738633,-1.535165 -2.124855,-2.588148 -3.746971,-3.764737 -1.180545,-0.856291 -4.067042,-2.966169 -5.463468,-4.134482 -0.605851,1.50993 0.07483,1.403223 -0.07286,2.320311 z"
         id="path1164"
         sodipodi:nodetypes="csssssccsssccssscssssscc" />
      <path
         style="color:#000000;font-style:normal;font-variant:normal;font-weight:normal;font-stretch:normal;font-size:medium;line-height:normal;font-family:sans-serif;font-variant-ligatures:normal;font-variant-position:normal;font-variant-caps:normal;font-variant-numeric:normal;font-variant-alternates:normal;font-variant-east-asian:normal;font-feature-settings:normal;font-variation-settings:normal;text-indent:0;text-align:start;text-decoration:none;text-decoration-line:none;text-decoration-style:solid;text-decoration-color:#000000;letter-spacing:normal;word-spacing:normal;text-transform:none;writing-mode:lr-tb;direction:ltr;text-orientation:mixed;dominant-baseline:auto;baseline-shift:baseline;text-anchor:start;white-space:normal;shape-padding:0;shape-margin:0;inline-size:0;clip-rule:nonzero;display:inline;overflow:visible;visibility:visible;isolation:auto;mix-blend-mode:normal;color-interpolation:sRGB;color-interpolation-filters:linearRGB;solid-color:#000000;solid-opacity:1;vector-effect:none;fill:#2b0000;fill-opacity:1;fill-rule:nonzero;stroke:none;stroke-width:0.264583;stroke-linecap:round;stroke-linejoin:round;stroke-miterlimit:4;stroke-dasharray:none;stroke-dashoffset:0;stroke-opacity:1;color-rendering:auto;image-rendering:auto;shape-rendering:auto;text-rendering:auto;enable-background:accumulate;stop-color:#000000"
         d="m 78.998783,8.6892542 c -2.129407,-0.051138 -4.028518,0.9340884 -5.302958,1.8135378 -1.952686,1.347472 -3.481398,3.806198 -3.995647,6.747925 -0.408281,2.335544 -0.826035,6.950659 -0.626828,11.02017 1.495817,-0.543943 -0.09575,-0.490051 1.900412,-0.30551 -0.156386,-3.712613 0.121128,-8.128106 0.518642,-10.402045 0.436373,-2.496245 1.789224,-4.564875 3.237193,-5.564065 1.588107,-1.09589 3.846718,-2.1820953 6.244362,-0.979592 1.085168,0.544246 1.97037,1.875989 3.102201,3.408598 1.131831,1.53261 2.571456,3.233742 4.958364,4.076464 4.072722,1.437919 5.500087,3.43293 7.199982,6.206175 0.674482,1.100365 0.902722,3.065146 0.319721,5.083593 -0.582997,2.018447 -3.244339,5.392994 -5.536871,6.806882 0.16413,0.395372 2.178026,0.155179 2.452088,0.277359 1.897742,-1.573889 4.258093,-4.593826 4.831709,-6.579792 0.69904,-2.420203 0.53281,-4.827265 -0.515995,-6.538328 C 96.03845,20.911019 94.112033,18.367715 89.640225,16.788898 87.754869,16.123251 86.617295,14.806501 85.53978,13.347437 84.462265,11.888374 83.505713,10.254385 81.789253,9.3935333 80.987846,8.9916 80.195157,8.7823711 79.427745,8.7132314 79.283854,8.700272 79.140746,8.6926646 78.998783,8.6892542 Z"
         id="path1148"
         sodipodi:nodetypes="cssccsssssssccscssssc" />
      <path
         style="color:#000000;font-style:normal;font-variant:normal;font-weight:normal;font-stretch:normal;font-size:medium;line-height:normal;font-family:sans-serif;font-variant-ligatures:normal;font-variant-position:normal;font-variant-caps:normal;font-variant-numeric:normal;font-variant-alternates:normal;font-variant-east-asian:normal;font-feature-settings:normal;font-variation-settings:normal;text-indent:0;text-align:start;text-decoration:none;text-decoration-line:none;text-decoration-style:solid;text-decoration-color:#000000;letter-spacing:normal;word-spacing:normal;text-transform:none;writing-mode:lr-tb;direction:ltr;text-orientation:mixed;dominant-baseline:auto;baseline-shift:baseline;text-anchor:start;white-space:normal;shape-padding:0;shape-margin:0;inline-size:0;clip-rule:nonzero;display:inline;overflow:visible;visibility:visible;isolation:auto;mix-blend-mode:normal;color-interpolation:sRGB;color-interpolation-filters:linearRGB;solid-color:#000000;solid-opacity:1;vector-effect:none;fill:#2b0000;fill-opacity:1;fill-rule:nonzero;stroke:none;stroke-width:0.264583;stroke-linecap:round;stroke-linejoin:round;stroke-miterlimit:4;stroke-dasharray:none;stroke-dashoffset:0;stroke-opacity:1;color-rendering:auto;image-rendering:auto;shape-rendering:auto;text-rendering:auto;enable-background:accumulate;stop-color:#000000"
         d="m 62.512633,8.4450212 c -0.234343,0.00591 -0.469913,0.021645 -0.706052,0.047959 -3.590481,0.3998507 -5.375817,1.9901368 -8.088985,3.1093038 -2.936934,1.211461 -5.92973,2.970697 -9.910522,5.670637 -4.158794,2.820668 -5.422921,6.156102 -5.111121,8.600541 0.259738,2.036309 0.563498,4.252731 2.369502,7.277248 1.740929,2.915548 5.939865,5.49077 10.690415,7.092738 -0.110205,-0.623226 -0.284455,-1.151826 0.03088,-1.741767 -4.289121,-1.494945 -7.733258,-3.893254 -9.159986,-6.282609 -1.658834,-2.778051 -1.866595,-4.540716 -2.126156,-6.575633 -0.207506,-1.626785 0.57207,-4.317863 4.327804,-6.865155 3.933728,-2.668024 6.81721,-4.354005 9.582802,-5.494794 2.98935,-1.233083 4.472381,-2.634334 7.596968,-2.982301 2.465193,-0.274535 6.046717,1.925852 8.589066,4.153774 0.285258,-0.560453 0.621337,-1.22114 0.959933,-1.713834 -2.29311,-1.957607 -5.780338,-4.1353472 -8.344713,-4.2845625 -0.232374,-0.013505 -0.465494,-0.017457 -0.699837,-0.011545 z"
         id="path924"
         sodipodi:nodetypes="scssssccssssscccs" />
      <path
         id="path948"
         style="color:#000000;font-style:normal;font-variant:normal;font-weight:normal;font-stretch:normal;font-size:medium;line-height:normal;font-family:sans-serif;font-variant-ligatures:normal;font-variant-position:normal;font-variant-caps:normal;font-variant-numeric:normal;font-variant-alternates:normal;font-variant-east-asian:normal;font-feature-settings:normal;font-variation-settings:normal;text-indent:0;text-align:start;text-decoration:none;text-decoration-line:none;text-decoration-style:solid;text-decoration-color:#000000;letter-spacing:normal;word-spacing:normal;text-transform:none;writing-mode:lr-tb;direction:ltr;text-orientation:mixed;dominant-baseline:auto;baseline-shift:baseline;text-anchor:start;white-space:normal;shape-padding:0;shape-margin:0;inline-size:0;clip-rule:nonzero;display:inline;overflow:visible;visibility:visible;isolation:auto;mix-blend-mode:normal;color-interpolation:sRGB;color-interpolation-filters:linearRGB;solid-color:#000000;solid-opacity:1;vector-effect:none;fill:#2b0000;fill-opacity:1;fill-rule:nonzero;stroke:none;stroke-width:0.264583;stroke-linecap:round;stroke-linejoin:round;stroke-miterlimit:4;stroke-dasharray:none;stroke-dashoffset:0;stroke-opacity:1;color-rendering:auto;image-rendering:auto;shape-rendering:auto;text-rendering:auto;enable-background:accumulate;stop-color:#000000"
         d="m 90.080805,36.593174 c -0.658353,0.01683 -1.353537,0.06711 -2.094185,0.151866 -2.352364,0.269197 -6.522395,1.476693 -9.000538,2.481244 0.422511,0.769861 1.156044,0.338955 2.118693,0.999262 1.959416,-0.722414 5.004688,-1.434689 7.088778,-1.673184 2.783413,-0.318529 4.651721,-0.128825 6.480606,0.514222 0.999818,0.351546 1.94079,0.669166 2.626167,1.181199 0.685372,0.512034 1.180518,1.170237 1.376582,2.531136 0.184825,1.282861 -0.170223,3.642819 -0.384554,6.031219 -0.214335,2.388386 -0.252458,4.74909 -0.503562,6.158212 -0.0018,0.01064 -0.0036,0.02128 -0.0053,0.03197 -0.379784,2.684889 -2.169045,5.372771 -4.49122,7.108502 -1.085214,0.81116 -1.973671,0.965314 -2.896155,0.793977 -1.16676,-0.34542 -3.796181,-1.586117 -4.552365,-2.214656 0.175002,0.85208 0.38025,1.588612 0.388676,2.335757 0.731612,0.453517 2.995649,1.51231 3.831523,1.66756 1.386195,0.25746 2.904463,-0.06955 4.318037,-1.126138 2.671925,-1.997158 4.730828,-5.017591 5.199045,-8.297691 0.299995,-1.698272 0.316993,-4.008134 0.522217,-6.294986 0.20591,-2.294492 0.63819,-4.618614 0.3739,-6.453073 -0.25305,-1.756421 -1.076744,-2.973071 -2.088862,-3.729211 -1.012113,-0.756139 -2.146781,-1.100587 -3.111077,-1.439642 -1.049677,-0.369071 -2.131676,-0.605374 -3.321565,-0.70694 -0.594943,-0.05079 -1.216463,-0.06744 -1.87482,-0.05062 z"
         sodipodi:nodetypes="ssccsssssccscccsscsssssss" />
      <path
         id="path969"
         style="color:#000000;font-style:normal;font-variant:normal;font-weight:normal;font-stretch:normal;font-size:medium;line-height:normal;font-family:sans-serif;font-variant-ligatures:normal;font-variant-position:normal;font-variant-caps:normal;font-variant-numeric:normal;font-variant-alternates:normal;font-variant-east-asian:normal;font-feature-settings:normal;font-variation-settings:normal;text-indent:0;text-align:start;text-decoration:none;text-decoration-line:none;text-decoration-style:solid;text-decoration-color:#000000;letter-spacing:normal;word-spacing:normal;text-transform:none;writing-mode:lr-tb;direction:ltr;text-orientation:mixed;dominant-baseline:auto;baseline-shift:baseline;text-anchor:start;white-space:normal;shape-padding:0;shape-margin:0;inline-size:0;clip-rule:nonzero;display:inline;overflow:visible;visibility:visible;isolation:auto;mix-blend-mode:normal;color-interpolation:sRGB;color-interpolation-filters:linearRGB;solid-color:#000000;solid-opacity:1;vector-effect:none;fill:#2b0000;fill-opacity:1;fill-rule:nonzero;stroke:none;stroke-width:0.264583;stroke-linecap:round;stroke-linejoin:round;stroke-miterlimit:4;stroke-dasharray:none;stroke-dashoffset:0;stroke-opacity:1;color-rendering:auto;image-rendering:auto;shape-rendering:auto;text-rendering:auto;enable-background:accumulate;stop-color:#000000"
         d="m 41.623404,33.933946 c -4.600893,1.910502 -7.787242,6.034448 -7.578304,8.654718 0.124292,1.558614 0.975872,2.950771 1.849951,4.297606 0.874084,1.346834 1.804049,2.656733 2.267369,3.798481 1.016487,2.504917 2.734658,8.063225 4.559604,10.970044 0.878195,1.398818 1.787415,2.465265 2.827771,3.178579 1.040351,0.713315 2.22894,1.041111 3.459222,0.943183 2.260015,-0.17989 4.541166,-1.092944 6.881143,-3.219431 1.990287,-1.808705 3.965499,-6.102651 5.134994,-8.874882 l -1.936633,0.495884 c -1.022981,2.017942 -2.994934,5.73557 -4.42219,7.032608 -2.106576,1.914381 -3.911243,2.601776 -5.802078,2.752283 -0.845146,0.06727 -1.541799,-0.120295 -2.286021,-0.630565 -0.744216,-0.510274 -1.51889,-1.376237 -2.315322,-2.644819 -1.524316,-2.42797 -3.323185,-7.996578 -4.414841,-10.686732 -0.59075,-1.455781 -1.587853,-2.811528 -2.427229,-4.104888 -0.839375,-1.293356 -1.488347,-2.514866 -1.563089,-3.452115 -0.135192,-1.695435 2.660554,-5.520658 7.087946,-7.158843 -0.437829,-0.483032 -0.976399,-0.849331 -1.322293,-1.351111 z"
         sodipodi:nodetypes="csssssssccssssssscc" />
    </g>
    <path
       style="opacity:0.801;fill:#00aa00;stroke-width:0;stroke:none;fill-opacity:1;stroke-miterlimit:4;stroke-dasharray:none"
       d="m 160.01263,251.46305 c -5.81211,-0.4395 -11.83528,-1.69255 -17.27448,-3.59374 -3.26134,-1.13996 -7.07153,-2.71043 -7.0726,-2.91517 -8.7e-4,-0.16525 4.91763,-5.12322 6.65231,-6.7057 7.3813,-6.73365 15.88531,-12.54922 22.35239,-15.28595 l 1.17989,-0.49931 0.55114,1.33081 c 1.15522,2.7894 2.57426,6.02431 3.53878,8.06715 2.97266,6.29607 6.4599,11.57554 10.09994,15.29068 0.78841,0.80468 1.41096,1.48465 1.38346,1.51105 -0.0275,0.0264 -0.69581,0.25596 -1.48511,0.51011 -3.1356,1.00968 -7.32701,1.91859 -10.34533,2.24338 -1.4725,0.15845 -7.70102,0.18881 -9.58039,0.0467 z"
       id="path6087"
       transform="matrix(0.26458333,0,0,0.26458333,-3.2669378,-1.5576444)" />
    <path
       style="opacity:0.801;fill:#00aa00;fill-opacity:1;stroke:none;stroke-width:0;stroke-miterlimit:4;stroke-dasharray:none"
       d=""
       id="path6872"
       transform="matrix(0.26458333,0,0,0.26458333,-3.2669378,-1.5576444)" />
    <path
       style="opacity:0.801;fill:#00aa00;fill-opacity:1;stroke:none;stroke-width:0;stroke-miterlimit:4;stroke-dasharray:none"
       d="m 129.83887,242.27456 c -0.34477,-0.19219 -1.64225,-0.89833 -2.8833,-1.56922 -1.24104,-0.67088 -3.49777,-1.94307 -5.01494,-2.82708 -1.51717,-0.88401 -2.91329,-1.69528 -3.10249,-1.80283 -0.18919,-0.10755 -0.34451,-0.22731 -0.34515,-0.26614 -0.002,-0.12244 2.84509,-3.59733 4.67128,-5.7013 10.78994,-12.43117 22.7126,-20.56104 34.8315,-23.75105 0.87631,-0.23066 1.62651,-0.38651 1.66712,-0.34633 0.0406,0.0402 0.86071,2.22418 1.82245,4.85334 0.96175,2.62916 1.90494,5.18936 2.096,5.68935 0.19105,0.49999 0.32611,0.92716 0.30013,0.94927 -0.026,0.0221 -0.80491,0.36582 -1.73096,0.76381 -8.81373,3.7879 -20.21135,12.25568 -29.07527,21.60127 -0.75264,0.79354 -1.62815,1.73948 -1.94556,2.10209 -0.31742,0.36262 -0.59666,0.65816 -0.62054,0.65677 -0.0239,-0.001 -0.3255,-0.15977 -0.67027,-0.35195 z"
       id="path6911"
       transform="matrix(0.26458333,0,0,0.26458333,-3.2669378,-1.5576444)" />
    <path
       style="opacity:0.801;fill:#00aa00;fill-opacity:1;stroke:none;stroke-width:0;stroke-miterlimit:4;stroke-dasharray:none"
       d="m 112.09713,232.01192 c -2.18487,-1.36491 -11.51764,-7.03527 -13.512123,-8.20964 -0.844816,-0.49743 -1.536187,-0.9344 -1.53638,-0.97103 -9.01e-4,-0.17125 3.661043,-4.81411 5.663933,-7.18112 2.44813,-2.8932 6.70721,-7.09422 9.31267,-9.18571 6.60339,-5.30076 14.61599,-9.78966 25.42542,-14.24409 1.37204,-0.5654 2.85188,-1.17699 3.28854,-1.35907 0.43665,-0.18209 0.94955,-0.46344 1.13977,-0.62522 0.32998,-0.28064 0.43395,-0.2945 2.2653,-0.30199 2.02727,-0.008 6.38213,0.15039 7.7073,0.28083 l 0.78669,0.0774 0.94715,1.57369 c 1.4031,2.33125 2.5738,4.6877 3.46362,6.97175 0.4354,1.11764 0.77052,2.04723 0.74471,2.06576 -0.0258,0.0185 -0.74907,0.22484 -1.60723,0.45847 -14.50971,3.95026 -28.34981,14.06279 -40.89187,29.87841 -0.80755,1.01833 -1.4764,1.84649 -1.48634,1.84036 -0.01,-0.006 -0.77996,-0.48711 -1.71116,-1.06884 z"
       id="path6950"
       transform="matrix(0.26458333,0,0,0.26458333,-3.2669378,-1.5576444)" />
    <path
       style="opacity:0.801;fill:#00aa00;fill-opacity:1;stroke:none;stroke-width:0;stroke-miterlimit:4;stroke-dasharray:none"
       d="m 91.281273,219.54768 c -3.524075,-2.0138 -10.595563,-5.83119 -13.73989,-7.41718 l -1.266559,-0.63885 1.445078,-1.06858 c 7.944609,-5.87477 20.189313,-13.22103 27.302388,-16.38017 l 1.43417,-0.63696 3.49757,-0.46984 c 5.7684,-0.77489 12.64106,-1.5939 15.42804,-1.83855 0.5154,-0.0453 1.16193,-0.11181 1.43674,-0.14792 0.38383,-0.0504 -0.16504,0.28117 -2.3675,1.43036 -9.49009,4.95171 -15.33135,9.15379 -21.73493,15.63564 -3.628631,3.67298 -5.560001,5.92261 -9.878414,11.50623 l -0.490974,0.63482 z"
       id="path6989"
       transform="matrix(0.26458333,0,0,0.26458333,-3.2669378,-1.5576444)" />
    <path
       style="opacity:0.801;fill:#00aa00;fill-opacity:1;stroke:none;stroke-width:0;stroke-miterlimit:4;stroke-dasharray:none"
       d="m 70.035278,208.48473 c -2.060973,-1.05984 -8.874153,-4.0725 -13.645704,-6.03388 -2.263327,-0.93036 -2.454779,-1.03209 -2.068311,-1.09906 0.23424,-0.0406 2.112169,-0.31042 4.173176,-0.59961 4.910648,-0.68903 9.285817,-1.35705 21.217283,-3.23954 5.418045,-0.85484 9.903117,-1.53718 9.966824,-1.51632 0.06371,0.0209 -0.405538,0.34437 -1.042765,0.71889 -5.00688,2.94275 -12.909663,8.3185 -16.435071,11.17971 -0.624552,0.50688 -1.226263,0.91946 -1.337137,0.91685 -0.110875,-0.003 -0.483607,-0.14979 -0.828295,-0.32704 z"
       id="path7028"
       transform="matrix(0.26458333,0,0,0.26458333,-3.2669378,-1.5576444)" />
    <path
       style="opacity:0.801;fill:#00aa00;fill-opacity:1;stroke:none;stroke-width:0;stroke-miterlimit:4;stroke-dasharray:none"
       d="m 53.850142,195.61719 c 0.406653,-0.29899 2.252295,-1.65444 4.101429,-3.0121 1.849133,-1.35767 4.981763,-3.68119 6.961401,-5.16338 l 3.599342,-2.6949 1.388978,0.46169 c 0.763939,0.25392 4.347003,1.38503 7.962365,2.51356 3.615362,1.12853 7.291766,2.27662 8.169785,2.5513 0.87802,0.27469 1.596515,0.53179 1.596654,0.57135 5.12e-4,0.14402 -33.466727,5.31056 -34.433069,5.31564 -0.04744,2.5e-4 0.246463,-0.24417 0.653115,-0.54316 z"
       id="path7067"
       transform="matrix(0.26458333,0,0,0.26458333,-3.2669378,-1.5576444)" />
    <path
       style="opacity:0.801;fill:#00aa00;fill-opacity:1;stroke:none;stroke-width:0;stroke-miterlimit:4;stroke-dasharray:none"
       d="m 97.931378,188.66167 c -2.186207,-0.80908 -11.000066,-3.67685 -17.405033,-5.66309 -3.718619,-1.15317 -6.769731,-2.10506 -6.78025,-2.11531 -0.02533,-0.0247 2.460553,-1.84737 6.654508,-4.8792 l 3.41454,-2.4684 1.709263,0.66675 c 6.687298,2.60857 18.146754,6.23688 35.502634,11.24089 l 1.86513,0.53775 -1.42395,0.15958 c -2.75248,0.30847 -5.95878,0.71136 -9.79344,1.2306 -2.12976,0.28838 -4.30685,0.52019 -4.83797,0.51512 -0.63772,-0.006 -1.12557,0.06 -1.43649,0.19463 -0.45738,0.19801 -5.33873,0.96367 -6.091951,0.95554 -0.206264,-0.002 -0.82591,-0.17091 -1.376991,-0.37486 z"
       id="path7106"
       transform="matrix(0.26458333,0,0,0.26458333,-3.2669378,-1.5576444)" />
    <path
       style="opacity:0.801;fill:#00aa00;fill-opacity:1;stroke:none;stroke-width:0;stroke-miterlimit:4;stroke-dasharray:none"
       d="m 136.5795,184.50052 c -0.50653,-0.15327 -5.935,-1.74769 -12.06329,-3.54316 -20.25991,-5.93576 -27.085347,-8.05037 -34.325167,-10.63441 l -1.145918,-0.409 1.513395,-1.02193 c 8.314046,-5.6141 17.62799,-10.9994 24.71421,-14.28968 l 1.64131,-0.7621 1.34871,0.87585 c 5.34407,3.47043 13.01283,7.05711 19.91032,9.31206 l 2.7505,0.8992 0.0258,1.2313 c 0.0961,4.58566 2.09698,9.47406 6.84135,16.71403 0.50201,0.76608 0.96796,1.49489 1.03544,1.61957 0.11778,0.21764 -0.10624,0.22791 -5.60151,0.25682 -5.59614,0.0294 -5.74479,0.0239 -6.64514,-0.24855 z"
       id="path7145"
       transform="matrix(0.26458333,0,0,0.26458333,-3.2669378,-1.5576444)" />
    <path
       style="opacity:0.801;fill:#00aa00;fill-opacity:1;stroke:none;stroke-width:0;stroke-miterlimit:4;stroke-dasharray:none"
       d="m 140.65234,159.26972 c -5.102,-1.63705 -11.41694,-4.41676 -16.63885,-7.32411 l -1.10334,-0.6143 1.72175,-0.64096 c 3.40462,-1.26745 7.87591,-2.58078 11.39514,-3.34703 4.84633,-1.05522 8.59142,-1.41611 12.40469,-1.19538 1.31409,0.0761 2.45907,0.17689 2.5444,0.22406 0.10379,0.0574 -0.25809,0.54301 -1.09308,1.46694 -3.26368,3.61128 -5.80462,7.386 -7.24078,10.75658 -0.25689,0.60293 -0.52799,1.09167 -0.60244,1.08609 -0.0744,-0.006 -0.69882,-0.19092 -1.38749,-0.41189 z"
       id="path7184"
       transform="matrix(0.26458333,0,0,0.26458333,-3.2669378,-1.5576444)" />
    <path
       style="opacity:0.801;fill:#00aa00;fill-opacity:1;stroke:none;stroke-width:0;stroke-miterlimit:4;stroke-dasharray:none"
       d="m 389.74056,158.95528 c -1.12385,-2.18654 -2.7281,-4.21911 -4.54254,-5.75537 -1.04042,-0.88091 -2.96015,-2.17388 -3.98581,-2.6845 -0.35701,-0.17774 -0.68092,-0.37404 -0.7198,-0.43621 -0.16484,-0.2636 4.26833,-1.94716 6.85131,-2.60188 3.91389,-0.99207 8.86225,-1.51184 12.09425,-1.27036 3.07853,0.23002 7.65128,1.04299 11.28494,2.00631 2.10889,0.55909 6.07209,1.80581 6.07264,1.9103 5.1e-4,0.0979 -4.11905,2.07405 -7.02551,3.37014 -4.18603,1.86669 -9.21209,3.81121 -13.10199,5.06899 -1.9376,0.62652 -5.75998,1.69583 -6.06445,1.69654 -0.11867,2.5e-4 -0.44994,-0.50024 -0.86304,-1.30396 z"
       id="path7223"
       transform="matrix(0.26458333,0,0,0.26458333,-3.2669378,-1.5576444)" />
    <path
       style="opacity:0.801;fill:#00aa00;fill-opacity:1;stroke:none;stroke-width:0;stroke-miterlimit:4;stroke-dasharray:none"
       d="m 391.53587,183.69273 c 0.1141,-0.6934 0.64061,-5.98553 0.77767,-7.8167 0.19627,-2.62218 0.14252,-7.12716 -0.10589,-8.87457 -0.1123,-0.79004 -0.20484,-1.47302 -0.20563,-1.51772 -7.9e-4,-0.0447 0.29351,-0.15211 0.654,-0.23867 0.36048,-0.0866 1.63833,-0.43986 2.83965,-0.78509 7.69952,-2.21266 15.78952,-5.50959 24.83519,-10.12113 1.75563,-0.89503 3.24896,-1.62763 3.31851,-1.628 0.21701,-0.001 3.73994,1.60077 6.42534,2.92168 4.42685,2.17749 9.67999,5.11916 14.29231,8.00345 2.26695,1.41763 7.65078,4.97625 7.65148,5.0575 7.1e-4,0.0884 -5.57541,2.05009 -8.67134,3.05057 -4.52099,1.46099 -12.77352,3.96011 -21.65331,6.5573 -4.90814,1.43555 -11.2266,3.28911 -14.04102,4.11902 l -5.11713,1.50893 -5.5308,0.0694 -5.53079,0.0694 z"
       id="path7262"
       transform="matrix(0.26458333,0,0,0.26458333,-3.2669378,-1.5576444)" />
    <path
       style="opacity:0.801;fill:#00aa00;fill-opacity:1;stroke:none;stroke-width:0;stroke-miterlimit:4;stroke-dasharray:none"
       d="m 440.5533,187.1761 c -5.54234,-0.73381 -14.66131,-1.73453 -19.80075,-2.17296 l -2.41518,-0.20602 6.26754,-1.82795 c 10.95522,-3.19513 17.74178,-5.28638 23.57565,-7.26474 2.51562,-0.85309 3.94556,-1.36993 8.50003,-3.07224 l 0.70221,-0.26246 1.11309,0.78843 c 3.33567,2.36278 8.83297,6.49444 8.74544,6.57291 -0.0557,0.05 -2.09501,0.70597 -4.53172,1.45778 -6.55576,2.0227 -12.23842,3.84241 -16.05519,5.14121 -1.86368,0.63419 -3.52038,1.14734 -3.68155,1.14033 -0.16118,-0.007 -1.24998,-0.13944 -2.41957,-0.29429 z"
       id="path7301"
       transform="matrix(0.26458333,0,0,0.26458333,-3.2669378,-1.5576444)" />
    <path
       style="opacity:0.801;fill:#00aa00;fill-opacity:1;stroke:none;stroke-width:0;stroke-miterlimit:4;stroke-dasharray:none"
       d="m 483.46288,193.63487 c -6.55364,-1.12727 -17.21333,-2.82958 -25.33414,-4.04576 -1.61692,-0.24215 -2.95053,-0.45067 -2.96357,-0.46337 -0.013,-0.0127 2.71058,-0.87529 6.0525,-1.91687 3.34192,-1.04159 7.27424,-2.28023 8.73849,-2.75254 l 2.66227,-0.85875 3.47209,2.62247 c 1.90965,1.44236 5.07459,3.81211 7.03321,5.26611 1.95861,1.45401 3.45549,2.63881 3.3264,2.6329 -0.1291,-0.006 -1.47336,-0.2238 -2.98725,-0.48419 z"
       id="path7340"
       transform="matrix(0.26458333,0,0,0.26458333,-3.2669378,-1.5576444)" />
    <path
       style="opacity:0.801;fill:#00aa00;fill-opacity:1;stroke:none;stroke-width:0;stroke-miterlimit:4;stroke-dasharray:none"
       d="m 469.15844,207.08614 c -1.17499,-0.98016 -5.31333,-4.02661 -7.52926,-5.5427 -2.77835,-1.90088 -6.24874,-4.10762 -9.65744,-6.14093 -2.05066,-1.22323 -2.75755,-1.69991 -2.44621,-1.64955 0.24083,0.039 2.35184,0.34385 4.69113,0.67752 11.83878,1.68867 34.06921,5.27126 33.86856,5.45816 -0.0489,0.0456 -1.49222,0.65251 -3.20733,1.34878 -3.94707,1.60235 -8.51607,3.58887 -11.86157,5.15719 -1.43279,0.67168 -2.71746,1.24344 -2.85482,1.27058 -0.16313,0.0322 -0.51099,-0.16858 -1.00306,-0.57905 z"
       id="path7379"
       transform="matrix(0.26458333,0,0,0.26458333,-3.2669378,-1.5576444)" />
    <path
       style="opacity:0.801;fill:#00aa00;fill-opacity:1;stroke:none;stroke-width:0;stroke-miterlimit:4;stroke-dasharray:none"
       d="m 447.6384,217.74623 c -10.00381,-13.00209 -18.0962,-19.84896 -31.56511,-26.70679 -1.961,-0.99847 -2.39782,-1.26326 -2.00643,-1.21626 0.27518,0.033 1.56951,0.14027 2.8763,0.23829 3.13917,0.23546 10.58987,0.94196 13.67326,1.29655 l 2.46027,0.28293 1.87936,0.82381 c 7.70047,3.37548 18.82863,9.96576 27.68037,16.39279 1.08698,0.78923 1.97575,1.46672 1.97504,1.50554 -6.7e-4,0.0388 -1.24876,0.70963 -2.77345,1.49071 -2.95494,1.51377 -8.52724,4.52951 -11.32592,6.12959 -0.93409,0.53405 -1.75342,0.97128 -1.82074,0.97164 -0.0673,3.5e-4 -0.54115,-0.54361 -1.05295,-1.2088 z"
       id="path7418"
       transform="matrix(0.26458333,0,0,0.26458333,-3.2669378,-1.5576444)" />
    <path
       style="opacity:0.801;fill:#00aa00;fill-opacity:1;stroke:none;stroke-width:0;stroke-miterlimit:4;stroke-dasharray:none"
       d="m 425.11933,229.10894 c -3.26032,-4.31791 -5.71319,-7.13807 -8.80705,-10.12583 -7.39925,-7.14552 -15.73548,-11.87174 -24.88715,-14.10977 l -1.59768,-0.39071 0.0645,-0.76567 c 0.0355,-0.42111 0.16708,-2.48185 0.29241,-4.57941 0.24357,-4.07642 0.5389,-8.04531 0.67463,-9.06617 l 0.0832,-0.62545 1.49826,-0.0847 c 0.82404,-0.0466 2.67077,-0.0985 4.10385,-0.11534 2.10773,-0.0248 2.66917,0.005 2.93835,0.15498 0.18303,0.1021 1.54476,0.67879 3.02607,1.28154 5.31096,2.16104 10.51815,4.58905 14.47321,6.74856 9.71608,5.3051 16.44295,10.96582 23.47551,19.75484 2.14233,2.6774 3.46443,4.39922 3.46503,4.5126 3e-4,0.0566 -0.18172,0.20884 -0.40448,0.33842 -1.80356,1.04908 -7.58598,4.53395 -11.45636,6.90436 -2.58292,1.58191 -4.74176,2.87577 -4.79744,2.87524 -0.0557,-5.8e-4 -1.02086,-1.2189 -2.14486,-2.7075 z"
       id="path7457"
       transform="matrix(0.26458333,0,0,0.26458333,-3.2669378,-1.5576444)" />
    <path
       style="opacity:0.801;fill:#00aa00;fill-opacity:1;stroke:none;stroke-width:0;stroke-miterlimit:4;stroke-dasharray:none"
       d="m 412.47003,239.44123 c -0.82784,-1.17854 -2.9281,-3.73003 -4.50682,-5.47508 -5.38096,-5.94788 -12.02631,-10.63683 -19.14744,-13.51041 -0.91435,-0.36897 -1.14803,-0.51259 -1.08824,-0.66887 0.36971,-0.9663 1.26531,-5.90563 1.52772,-8.42551 0.11947,-1.14728 0.19392,-1.46979 0.33947,-1.47056 0.27806,-0.001 1.87921,0.44034 3.64522,1.00582 9.01929,2.88798 16.94462,8.47594 24.16143,17.03564 1.24421,1.47573 3.98823,5.01418 4.93672,6.36597 l 0.27393,0.39041 -3.02026,1.76524 c -2.9433,1.72027 -6.46658,3.69333 -6.57918,3.6844 -0.0308,-0.002 -0.27498,-0.31612 -0.54255,-0.69705 z"
       id="path7496"
       transform="matrix(0.26458333,0,0,0.26458333,-3.2669378,-1.5576444)" />
    <path
       style="opacity:0.801;fill:#c4c8b7;fill-opacity:1;stroke:none;stroke-width:0;stroke-miterlimit:4;stroke-dasharray:none"
       d="m 372.19747,250.4 c -2.04622,-0.18969 -3.10824,-0.32907 -4.12791,-0.54174 -1.0928,-0.22792 -3.04458,-0.77699 -3.29939,-0.92818 -0.059,-0.035 0.44555,-0.35727 1.12125,-0.71612 2.41781,-1.28403 5.47422,-3.59803 8.01266,-6.06635 l 0.68401,-0.66511 0.75268,0.50776 c 2.0256,1.36647 5.1036,4.0527 7.22778,6.3078 0.72207,0.76658 1.35529,1.46808 1.40715,1.55889 0.1097,0.19209 -0.24216,0.25118 -2.70298,0.45392 -1.47065,0.12117 -8.03427,0.18563 -9.07525,0.0891 z"
       id="path7574"
       transform="matrix(0.26458333,0,0,0.26458333,-3.2669378,-1.5576444)" />
    <path
       style="opacity:0.801;fill:#00aa00;fill-opacity:1;stroke:none;stroke-width:0;stroke-miterlimit:4;stroke-dasharray:none"
       d="m 389.48406,248.12629 c -2.31696,-2.93609 -5.26562,-5.93185 -8.12309,-8.25286 -0.7164,-0.58191 -2.19667,-1.68688 -2.77486,-2.07135 l -0.3903,-0.25953 0.7621,-0.95597 c 1.8204,-2.28352 3.45097,-4.72887 4.86192,-7.29138 0.41445,-0.75271 1.47292,-2.91213 1.81431,-3.70144 l 0.27336,-0.63204 0.87691,0.35295 c 3.08196,1.24049 6.18412,2.90331 8.80625,4.72033 4.45054,3.08404 8.14902,6.6865 11.98749,11.6763 l 0.70079,0.91099 -1.01157,0.47673 c -4.89346,2.30618 -9.59583,4.05892 -13.98684,5.2134 -1.21654,0.31985 -2.91695,0.73113 -3.02516,0.7317 -0.0258,1.3e-4 -0.37284,-0.41289 -0.77131,-0.91783 z"
       id="path31259"
       transform="matrix(0.26458333,0,0,0.26458333,-3.2669378,-1.5576444)" />
    <path
       style="opacity:0.801;fill:#00aa00;fill-opacity:1;stroke:none;stroke-width:0;stroke-miterlimit:4;stroke-dasharray:none"
       d="m 372.72864,250.38284 c -1.75621,-0.0713 -3.87586,-0.35695 -5.37889,-0.7248 -0.95744,-0.23432 -2.20883,-0.59746 -2.40424,-0.69769 -0.16995,-0.0872 -0.21149,-0.0585 1.45776,-1.00722 2.30171,-1.30823 4.8668,-3.27083 7.34289,-5.61817 0.44612,-0.42292 0.83925,-0.76878 0.87362,-0.76858 0.0932,5.3e-4 1.42875,0.94225 2.23863,1.57855 2.18319,1.71526 4.65699,4.01546 6.44623,5.99388 0.35366,0.39106 0.63357,0.73986 0.62202,0.77512 -0.0328,0.10015 -0.30601,0.15006 -1.44896,0.2647 -1.9176,0.19233 -7.2775,0.3046 -9.74906,0.20421 z"
       id="path31298"
       transform="matrix(0.26458333,0,0,0.26458333,-3.2669378,-1.5576444)" />
    <path
       style="opacity:0.801;fill:#ffd5d5;fill-opacity:1;stroke:none;stroke-width:0;stroke-miterlimit:4;stroke-dasharray:none"
       d="m 303.97426,151.69104 c -4.08939,-1.10259 -7.88922,-2.11144 -8.44406,-2.24189 -0.97028,-0.22812 -0.87266,-0.33177 2.55735,-2.71525 2.78036,-1.93206 3.84467,-2.47955 4.83018,-2.48474 2.86921,-0.0151 5.07944,-2.06906 5.30994,-4.93453 0.25467,-3.16585 -2.05842,-5.69055 -5.19615,-5.67149 -2.92178,0.0178 -4.97022,1.92208 -5.3037,4.93059 -0.17287,1.55955 -0.27162,1.67382 -3.3261,3.84881 -1.73136,1.23285 -3.26304,2.24215 -3.40372,2.24289 -0.14067,7.4e-4 -0.59464,-1.4358 -1.00881,-3.19231 l -0.75303,-3.19365 2.79101,-3.48044 c 3.22198,-4.01786 7.56757,-10.09053 9.9946,-13.96679 1.42385,-2.27405 1.86491,-2.72267 2.86701,-2.91613 2.62634,-0.50702 4.41493,-3.4612 3.85418,-6.36587 -0.88352,-4.57654 -7.25872,-5.54733 -9.78647,-1.49023 -0.58845,0.94447 -0.6889,1.56316 -0.54882,3.38006 0.16804,2.17953 0.13634,2.27863 -1.58602,4.95816 -2.00817,3.12418 -8.3646,11.77834 -9.11099,12.40445 -0.41763,0.35034 -0.9789,-1.18163 -3.49512,-9.53985 -1.64867,-5.47646 -3.16216,-10.16224 -3.36333,-10.41283 -0.42514,-0.52961 -0.1995,-17.449833 0.32632,-24.470028 1.11331,-14.86347 2.75712,-21.4141 6.96083,-27.739064 3.82788,-5.75949 10.30792,-10.408462 17.01395,-12.206305 4.1776,-1.119991 9.31333,-0.61608 13.08683,1.28406 2.3903,1.203634 5.12256,4.081464 9.90133,10.428854 8.68291,11.533064 12.51364,14.710772 22.28439,18.485634 10.08615,3.896708 16.36951,8.956121 22.45773,18.083157 4.47277,6.705252 5.27632,8.945622 5.32325,14.841612 0.0582,7.3171 -1.65403,12.16073 -6.93944,19.63018 -2.55778,3.6147 -8.85342,10.24985 -12.14011,12.7948 l -2.56228,1.98403 -2.6272,0.017 c -3.61321,0.0232 -10.14864,0.66071 -13.75731,1.34205 -6.7225,1.26926 -19.4484,4.87271 -25.94788,7.34739 -1.55254,0.59113 -2.82287,1.06303 -2.82295,1.04866 -7e-5,-0.0143 -3.34601,-0.92824 -7.4354,-2.03083 z"
       id="path32600"
       transform="matrix(0.26458333,0,0,0.26458333,-3.2669378,-1.5576444)" />
    <path
       style="opacity:0.801;fill:#ffd5d5;fill-opacity:1;stroke:none;stroke-width:0;stroke-miterlimit:4;stroke-dasharray:none"
       d="m 352.89235,243.04333 c -7.3508,-2.71806 -16.12557,-7.34911 -16.13169,-8.51382 -10e-4,-0.20355 -0.67157,-1.72262 -1.49,-3.37572 -2.28314,-4.61163 -5.82834,-8.06299 -15.93373,-15.51197 -6.71515,-4.94994 -14.8018,-11.07705 -17.96803,-13.61405 -0.26587,-0.21304 -0.89151,-1.7684 -1.3903,-3.45636 -1.41136,-4.77618 -4.37287,-10.04086 -8.58384,-15.25951 -1.06452,-1.31926 -1.93693,-2.50345 -1.93868,-2.63153 -0.002,-0.12808 2.49443,-1.79489 5.54708,-3.70403 8.2351,-5.15025 20.00282,-13.50245 22.71968,-16.1254 0.73467,-0.70928 1.31735,-1.61466 1.31509,-2.04343 -0.003,-0.66327 0.47249,-0.92408 3.43729,-1.88339 8.21543,-2.65824 19.06168,-4.83677 27.37543,-5.4985 8.38658,-0.66753 15.01497,0.28847 23.11608,3.33398 6.12138,2.30126 8.57855,4.04778 10.34186,7.35082 2.16935,4.06366 2.37437,7.88565 1.10791,20.65349 -0.45067,4.54346 -1.05474,11.84185 -1.34238,16.21865 -0.97904,14.89728 -1.71667,18.86794 -4.63941,24.97374 -3.69659,7.72243 -11.05962,15.71141 -17.03812,18.4866 -2.74543,1.2744 -6.05045,1.50776 -8.50424,0.60043 z"
       id="path32676"
       transform="matrix(0.26458333,0,0,0.26458333,-3.2669378,-1.5576444)" />
    <path
       style="opacity:0.801;fill:#ffd5d5;fill-opacity:1;stroke:none;stroke-width:0;stroke-miterlimit:4;stroke-dasharray:none"
       d="m 289.77221,274.7477 c -4.75966,-0.29443 -11.00377,-1.01999 -17.33495,-2.0143 -4.80807,-0.7551 -11.28911,-0.83771 -17.32552,-0.22082 -6.11586,0.62502 -11.3408,0.58503 -13.76297,-0.10531 -2.7014,-0.76993 -5.44466,-2.52143 -8.49235,-5.42211 -4.20113,-3.99851 -7.23192,-8.48923 -11.43319,-16.94059 l -2.01283,-4.04903 0.9832,-0.70323 c 3.6762,-2.62938 8.39327,-8.2731 12.0944,-14.4703 1.70843,-2.8606 8.11576,-15.84 9.7676,-19.78634 l 0.81641,-1.95045 3.19598,-1.01759 c 5.60742,-1.78537 10.67098,-4.15857 14.7406,-6.90865 l 3.90727,-2.64037 4.29456,4.17597 c 4.74288,4.6119 7.1296,6.46155 10.9928,8.51918 4.33301,2.30785 8.65286,3.52097 14.0285,3.93953 3.32909,0.25922 4.13798,-0.12482 5.29016,-2.51165 l 0.87437,-1.81131 6.56562,4.71282 c 17.5198,12.57576 19.85178,14.5911 22.11568,19.11283 2.97257,5.93717 3.45064,11.18221 1.57523,17.28255 -1.83347,5.96386 -5.06485,11.05831 -9.9347,15.66256 -4.93053,4.66162 -8.73669,6.42673 -15.24787,7.07121 -4.49113,0.44453 -9.35313,0.46788 -15.698,0.0754 z"
       id="path32715"
       transform="matrix(0.26458333,0,0,0.26458333,-3.2669378,-1.5576444)" />
    <path
       style="opacity:0.801;fill:#ffd5d5;fill-opacity:1;stroke:none;stroke-width:0;stroke-miterlimit:4;stroke-dasharray:none"
       d="m 191.15905,246.45775 c -2.70081,-1.23989 -5.21178,-3.23742 -7.34577,-5.8437 -5.44425,-6.64918 -8.20484,-12.48844 -16.72102,-35.36863 -4.59673,-12.3499 -5.76021,-14.75262 -11.10006,-22.92289 -6.57333,-10.05756 -8.48436,-14.54716 -7.72959,-18.15913 0.86373,-4.13335 4.18112,-9.17107 9.28872,-14.10567 3.72236,-3.59626 7.39794,-6.18111 12.01773,-8.45144 4.68675,-2.30324 4.25361,-2.3222 7.45823,0.32633 6.062,5.01008 15.44488,10.31155 24.43637,13.80691 2.53312,0.98473 4.9297,1.91891 5.32572,2.07595 0.4796,0.19019 1.10202,1.27177 1.86396,3.23902 3.78219,9.76524 11.65718,17.09622 23.60625,21.97553 1.76743,0.72172 3.12026,1.48279 3.1217,1.75619 0.001,0.26538 -0.80003,3.62784 -1.78096,7.47213 -1.72655,6.7665 -1.78378,7.15136 -1.79275,12.05628 l -0.009,5.06665 0.99647,0.85026 c 0.54806,0.46764 1.30809,0.84861 1.68895,0.84661 0.64281,-0.003 0.61354,0.15523 -0.40821,2.21188 -3.94863,7.94808 -10.57131,18.62952 -13.68623,22.07395 -2.62578,2.90355 -7.39499,6.53439 -11.19316,8.52145 -6.39187,3.34398 -13.99447,4.42821 -18.03709,2.57232 z"
       id="path32754"
       transform="matrix(0.26458333,0,0,0.26458333,-3.2669378,-1.5576444)" />
    <path
       style="opacity:0.801;fill:#ffd5d5;fill-opacity:1;stroke:none;stroke-width:0;stroke-miterlimit:4;stroke-dasharray:none"
       d="m 204.43797,149.85873 c -10.6843,-4.27283 -21.03486,-10.83177 -26.59762,-16.85439 -3.80234,-4.11666 -7.58839,-10.86642 -9.61288,-17.13778 -2.26023,-7.00164 -3.17293,-15.82213 -2.03978,-19.712745 2.23468,-7.672683 7.57111,-13.616402 19.23098,-21.419499 12.37776,-8.283529 22.41394,-13.999778 31.61101,-18.004514 2.23114,-0.97152 7.30973,-3.376769 11.28574,-5.344996 7.95579,-3.938315 11.19531,-5.141448 16.23197,-6.028441 3.94503,-0.694748 6.29165,-0.528628 10.36137,0.733491 5.82237,1.805653 11.57932,4.946642 18.51062,10.099392 5.75466,4.278025 5.43107,3.624765 3.96214,7.998908 -2.61701,7.792819 -4.30939,23.941057 -4.23846,40.442344 l 0.035,8.13165 -5.4899,5.50904 -5.4899,5.50903 0.21541,-3.89027 c 0.35855,-6.47548 0.42936,-6.7723 1.8129,-7.59845 2.68183,-1.6014 3.2135,-5.58038 1.06862,-7.9975 -4.30486,-4.851248 -11.7338,0.66419 -8.46948,6.28797 0.45436,0.78278 0.47728,1.64744 0.16062,6.06143 -0.20315,2.83163 -0.35973,6.97723 -0.34797,9.21244 l 0.0214,4.06403 -2.49742,2.96838 c -1.37357,1.6326 -3.26269,4.06086 -4.19804,5.39613 l -1.70064,2.42775 -1.33905,-2.0582 c -3.63557,-5.58811 -8.41705,-16.30007 -10.62808,-23.81013 -0.75907,-2.57827 -0.79214,-2.97157 -0.3578,-4.25414 0.62394,-1.84241 0.26985,-3.59543 -1.01976,-5.04873 -1.32346,-1.49144 -2.78865,-2.06452 -4.70113,-1.83876 -2.75646,0.32539 -4.57884,2.41933 -4.56398,5.24409 0.0115,2.18483 1.00803,3.73185 3.017,4.68359 1.54552,0.73219 1.6622,0.89077 2.25658,3.06694 1.68176,6.15741 6.11491,16.40688 9.69892,22.42398 2.31437,3.88555 2.28397,4.01579 -0.94345,4.04142 -1.11111,0.009 -3.65056,0.21012 -5.64322,0.44734 l -3.62302,0.4313 -3.33147,-3.48835 c -1.8323,-1.91859 -4.18299,-4.51802 -5.22374,-5.77652 -1.80868,-2.18709 -1.88445,-2.36088 -1.71507,-3.93389 0.48323,-4.48762 -4.72727,-7.50288 -8.39803,-4.85985 -1.62702,1.17149 -2.22512,2.62169 -2.02355,4.90641 0.15241,1.72743 0.33347,2.09232 1.63363,3.29238 1.10486,1.01979 1.75761,1.34808 2.67086,1.34327 1.04429,-0.005 1.40061,0.24503 2.6205,1.8424 0.77653,1.01681 2.65496,3.18809 4.17429,4.82506 2.37901,2.56322 2.6711,3.01161 2.10452,3.23058 -0.36184,0.13984 -2.64354,0.84565 -5.07046,1.56846 -2.42691,0.72281 -5.74384,1.94647 -7.37096,2.71924 -1.62713,0.77276 -2.97622,1.39334 -2.99799,1.37906 -0.0218,-0.0143 -1.3948,-0.56794 -3.05117,-1.23035 z"
       id="path32793"
       transform="matrix(0.26458333,0,0,0.26458333,-3.2669378,-1.5576444)" />
    <path
       style="opacity:0.801;fill:#aa0044;fill-opacity:1;stroke:#a80010;stroke-width:1.06772;stroke-miterlimit:4;stroke-dasharray:none;stroke-opacity:0"
       d="m 290.29777,207.73279 c -6.12797,-1.29948 -12.01741,-5.08741 -19.2154,-12.35884 -5.25056,-5.30413 -6.4487,-5.78567 -8.60694,-3.45922 -1.85971,2.00464 -7.4208,5.57282 -11.28706,7.24214 -3.91683,1.69115 -12.14074,4.22935 -12.51225,3.86173 -0.13318,-0.13179 0.0189,-1.65413 0.33789,-3.38298 0.91364,-4.95132 0.92614,-4.97709 2.11082,-4.35107 1.33269,0.70424 4.00061,0.68262 5.33999,-0.0433 1.14212,-0.61899 2.54994,-3.00678 2.54307,-4.31326 -0.002,-0.44786 1.08803,-2.09605 2.42307,-3.66263 2.904,-3.40764 6.62744,-9.02735 9.28007,-14.00619 1.06424,-1.99754 2.09944,-3.63426 2.30044,-3.63715 0.41408,-0.006 0.59855,0.79796 1.31707,5.7398 0.97774,6.72472 4.72976,13.7695 8.97899,16.85889 1.61469,1.17396 2.18372,1.93053 2.20344,2.92967 0.096,4.86542 8.18377,5.86655 10.06909,1.24639 1.51178,-3.70477 -0.92459,-7.3917 -4.87079,-7.37094 -1.92937,0.0102 -2.54576,-0.27327 -4.5298,-2.08288 -3.8182,-3.48252 -6.71436,-10.62857 -6.77148,-16.70808 -0.0259,-2.76217 0.77117,-3.18831 4.40384,-2.35431 4.66476,1.07095 11.36502,1.24896 16.32766,0.4338 2.52474,-0.41471 4.70179,-0.55113 4.9651,-0.31111 0.5951,0.54245 1.00073,0.22398 -5.69323,4.46981 -3.15202,1.99926 -6.34663,4.2208 -7.09912,4.93675 -2.34368,2.22987 -1.95615,3.24139 3.57781,9.33874 3.02146,3.32906 6.77207,10.22075 7.93963,14.58896 0.7182,2.68696 0.61622,7.17359 -0.16093,7.08066 -0.17513,-0.0209 -1.69208,-0.32936 -3.37098,-0.68539 z"
       id="path89654"
       transform="matrix(0.26458333,0,0,0.26458333,-3.2669378,-1.5576444)" />
    <path
       style="opacity:0.801;fill:#aa0044;fill-opacity:1;stroke:#a80010;stroke-width:1.06772;stroke-miterlimit:4;stroke-dasharray:none;stroke-opacity:0"
       d="m 242.29134,183.74628 c 0.60566,-3.11338 0.0386,-3.75163 -5.11849,-5.76112 -10.5956,-4.12863 -17.7795,-9.8263 -21.04779,-16.69336 -2.55267,-5.36344 -2.65794,-6.09163 -0.99197,-6.86131 1.63438,-0.75508 12.36501,-3.62563 13.5722,-3.6307 0.46266,-0.002 2.64829,1.33843 4.85695,2.9786 4.35642,3.23512 10.32146,6.49593 14.44522,7.89652 l 2.60121,0.88347 -2.37555,0.38238 c -2.79539,0.44996 -9.24417,-0.36077 -13.01614,-1.63636 -1.50511,-0.509 -3.41874,-1.66645 -4.4621,-2.69889 -1.54853,-1.53232 -2.16282,-1.80593 -4.03251,-1.79609 -4.99415,0.0263 -7.13505,6.0366 -3.29036,9.23729 1.71048,1.42398 4.64822,1.70491 6.15777,0.58887 0.7586,-0.56085 1.52882,-0.48068 4.97336,0.51766 5.5622,1.61212 13.22382,1.95377 18.5273,0.82617 2.17187,-0.46176 4.02098,-0.7682 4.10914,-0.68096 0.34003,0.33647 -5.95138,10.81136 -8.57146,14.27106 -2.58305,3.41082 -2.87786,3.6402 -4.69079,3.64973 -1.87746,0.01 -1.92601,-0.0336 -1.64599,-1.47296 z"
       id="path89693"
       transform="matrix(0.26458333,0,0,0.26458333,-3.2669378,-1.5576444)" />
    <path
       style="opacity:0.801;fill:#aa0044;fill-opacity:1;stroke:#a80010;stroke-width:1.06772;stroke-miterlimit:4;stroke-dasharray:none;stroke-opacity:0"
       d=""
       id="path89732"
       transform="matrix(0.26458333,0,0,0.26458333,-3.2669378,-1.5576444)" />
    <path
       style="opacity:0.801;fill:#aa0044;fill-opacity:1;stroke:#a80010;stroke-width:1.06772;stroke-miterlimit:4;stroke-dasharray:none;stroke-opacity:0"
       d="m 255.56566,149.18513 -2.95702,-2.95692 2.19199,-2.87289 c 1.69488,-2.22136 2.22612,-2.65563 2.34249,-1.91491 0.27235,1.73347 1.64632,8.42717 1.96509,9.57355 0.49734,1.78848 -0.376,1.33763 -3.54255,-1.82883 z"
       id="path89771"
       transform="matrix(0.26458333,0,0,0.26458333,-3.2669378,-1.5576444)" />
    <path
       style="opacity:0.801;fill:#aa0044;fill-opacity:1;stroke:#a80010;stroke-width:1.06772;stroke-miterlimit:4;stroke-dasharray:none;stroke-opacity:0"
       d="m 264.32994,147.70675 c -0.58149,-2.41956 -1.24881,-6.45805 -1.48293,-8.97443 l -0.42566,-4.57523 3.17785,-3.65966 c 4.11849,-4.74292 10.15034,-10.94646 10.64604,-10.94906 0.21313,-0.001 0.38919,0.31871 0.39125,0.71074 0.002,0.39203 1.14762,4.29645 2.54569,8.67648 1.39806,4.38003 2.54327,8.21826 2.5449,8.52941 0.004,0.75955 -6.88384,8.02705 -11.0765,11.68705 -4.65321,4.06203 -5.01706,3.97883 -6.32064,-1.4453 z"
       id="path89810"
       transform="matrix(0.26458333,0,0,0.26458333,-3.2669378,-1.5576444)" />
    <path
       style="opacity:0.801;fill:#aa0044;fill-opacity:1;stroke:#a80010;stroke-width:1.06772;stroke-miterlimit:4;stroke-dasharray:none;stroke-opacity:0"
       d="m 251.07675,156.49148 c -3.85013,-1.23723 -8.32492,-3.40388 -11.71104,-5.67037 l -2.18879,-1.46507 4.701,-0.37733 4.701,-0.37733 4.62354,4.52747 c 2.54294,2.49011 4.3438,4.51887 4.0019,4.50837 -0.3419,-0.0105 -2.19932,-0.52609 -4.12761,-1.14574 z"
       id="path89849"
       transform="matrix(0.26458333,0,0,0.26458333,-3.2669378,-1.5576444)" />
    <path
       style="opacity:0.801;fill:#aa0044;fill-opacity:1;stroke:#a80010;stroke-width:1.06772;stroke-miterlimit:4;stroke-dasharray:none;stroke-opacity:0"
       d="m 275.73338,162.43846 c -1.33422,-0.27076 -2.37904,-0.76225 -2.38092,-1.12002 -0.002,-0.35064 3.2337,-2.23577 7.1901,-4.18917 8.48781,-4.1907 6.42889,-4.26718 23.4769,0.87208 l 4.94194,1.48979 -2.38732,1.57086 c -1.84919,1.21678 -2.44166,1.41065 -2.62841,0.86008 -1.09627,-3.23205 -6.0631,-4.11217 -8.62065,-1.52756 -1.08143,1.09286 -2.22707,1.59517 -4.61691,2.02431 -3.79644,0.68172 -11.66126,0.69203 -14.97473,0.0196 z"
       id="path89888"
       transform="matrix(0.26458333,0,0,0.26458333,-3.2669378,-1.5576444)" />
    <path
       style="opacity:0.801;fill:#aa0044;fill-opacity:1;stroke:#a80010;stroke-width:0.377495;stroke-miterlimit:4;stroke-dasharray:none;stroke-opacity:0"
       d="m 274.47382,153.45902 c 1.67164,-1.42958 4.58662,-4.21256 7.00925,-6.69184 1.39441,-1.42703 2.55221,-2.57497 2.57288,-2.55098 0.0311,0.0361 0.6129,2.58453 0.89927,3.93898 0.066,0.31235 -0.31587,0.57183 -2.69459,1.83084 -2.81637,1.49064 -8.21578,4.13789 -8.4422,4.13908 -0.0683,3.6e-4 0.2266,-0.29937 0.65539,-0.66608 z"
       id="path89927"
       transform="matrix(0.26458333,0,0,0.26458333,-3.2669378,-1.5576444)" />
  </g>
</svg>
